<?xml version="1.0" encoding="utf-8"?>
<!-- Generator: Adobe Illustrator 16.0.4, SVG Export Plug-In . SVG Version: 6.00 Build 0)  -->
<!DOCTYPE svg PUBLIC "-//W3C//DTD SVG 1.1//EN" "http://www.w3.org/Graphics/SVG/1.1/DTD/svg11.dtd">
<svg version="1.1" id="Layer_1" xmlns="http://www.w3.org/2000/svg" xmlns:xlink="http://www.w3.org/1999/xlink" x="0px" y="0px"
	 width="19.5px" height="14.757px" viewBox="0.75 -50.5 19.5 14.757" enable-background="new 0.75 -50.5 19.5 14.757"
	 xml:space="preserve">
<g>
	<path fill="#84909D" d="M5.295-39.617H0.75v2.306h5.146c0.377,0,0.731-0.185,0.946-0.494l1.838-2.637l-1.405-2.017L5.295-39.617z"
		/>
	<path fill="#84909D" d="M12.604-46.073h3.305v0.461v1.171c0,0.089,0.051,0.17,0.132,0.208c0.031,0.016,0.065,0.022,0.098,0.022
		c0.052,0,0.104-0.018,0.146-0.052l3.382-2.785c0.053-0.043,0.084-0.109,0.084-0.178c0-0.068-0.031-0.134-0.084-0.178l-3.382-2.785
		c-0.068-0.057-0.164-0.068-0.245-0.03c-0.081,0.038-0.132,0.119-0.132,0.208v1.171v0.461h-3.907c-0.377,0-0.73,0.184-0.946,0.494
		l-1.533,2.199l1.405,2.016L12.604-46.073z"/>
	<path fill="#84909D" d="M16.286-41.865c-0.069-0.056-0.164-0.068-0.245-0.03c-0.081,0.038-0.132,0.119-0.132,0.208v0.709v0.231
		v0.691h-3.305l-1.816-2.606l-0.281-0.403l-1.406-2.017L8.82-45.483l-1.979-2.84c-0.215-0.309-0.568-0.494-0.946-0.494H0.75v2.306
		h4.545l2.121,3.044l0.28,0.403l1.405,2.017l0.281,0.403l1.673,2.401c0.216,0.309,0.568,0.494,0.946,0.494h3.907v0.691v0.23v0.71
		c0,0.089,0.051,0.17,0.132,0.208c0.031,0.015,0.065,0.022,0.098,0.022c0.052,0,0.104-0.018,0.146-0.053l3.382-2.784
		c0.053-0.044,0.084-0.109,0.084-0.178s-0.031-0.134-0.084-0.178L16.286-41.865z"/>
</g>
</svg>
