<?xml version="1.0" encoding="utf-8"?>
<!-- Generator: Adobe Illustrator 16.0.4, SVG Export Plug-In . SVG Version: 6.00 Build 0)  -->
<!DOCTYPE svg PUBLIC "-//W3C//DTD SVG 1.1//EN" "http://www.w3.org/Graphics/SVG/1.1/DTD/svg11.dtd">
<svg version="1.1" id="Layer_1" xmlns="http://www.w3.org/2000/svg" xmlns:xlink="http://www.w3.org/1999/xlink" x="0px" y="0px"
	 width="41.5px" height="31.127px" viewBox="-5.25 -60.502 41.5 31.127" enable-background="new -5.25 -60.502 41.5 31.127"
	 xml:space="preserve">
<g>
	<path d="M4.605-37.463H-5.25v5H5.911c0.818,0,1.583-0.4,2.051-1.071l3.986-5.72l-3.047-4.373L4.605-37.463z"/>
	<path d="M20.457-51.464h7.167v1v2.539c0,0.193,0.112,0.37,0.287,0.452c0.068,0.032,0.141,0.048,0.213,0.048
		c0.114,0,0.227-0.039,0.318-0.114l7.334-6.039c0.115-0.095,0.182-0.237,0.182-0.386s-0.067-0.291-0.182-0.386l-7.334-6.039
		c-0.149-0.122-0.355-0.148-0.531-0.066c-0.175,0.083-0.287,0.259-0.287,0.452v2.539v1h-8.473c-0.818,0-1.583,0.4-2.051,1.071
		l-3.324,4.77l3.047,4.373L20.457-51.464z"/>
	<path d="M28.442-42.338c-0.149-0.122-0.356-0.147-0.531-0.066c-0.175,0.083-0.287,0.259-0.287,0.452v1.539v0.5v1.5h-7.167
		l-3.938-5.65l-0.609-0.875l-3.047-4.373l-0.609-0.875l-4.291-6.157c-0.468-0.671-1.233-1.071-2.051-1.071H-5.25v5h9.855l4.6,6.601
		l0.609,0.874l3.047,4.373l0.609,0.875l3.628,5.207c0.468,0.671,1.233,1.071,2.051,1.071h8.473v1.5v0.5v1.539
		c0,0.193,0.112,0.37,0.287,0.452c0.068,0.032,0.141,0.048,0.213,0.048c0.114,0,0.227-0.039,0.318-0.114l7.334-6.039
		c0.115-0.095,0.182-0.237,0.182-0.386s-0.067-0.291-0.182-0.386L28.442-42.338z"/>
</g>
</svg>
