<?xml version="1.0" encoding="utf-8"?>
<!-- Generator: Adobe Illustrator 16.0.0, SVG Export Plug-In . SVG Version: 6.00 Build 0)  -->
<!DOCTYPE svg PUBLIC "-//W3C//DTD SVG 1.1//EN" "http://www.w3.org/Graphics/SVG/1.1/DTD/svg11.dtd">
<svg version="1.1" id="Layer_1" xmlns="http://www.w3.org/2000/svg" xmlns:xlink="http://www.w3.org/1999/xlink" x="0px" y="0px"
	 width="140.981px" height="86.4px" viewBox="-20.491 -12.558 140.981 86.4" enable-background="new -20.491 -12.558 140.981 86.4"
	 xml:space="preserve">
<path id="path5421_1_" d="M68.15-12.199l-2.964,5.921l11.842,4.439v13.317H35.589V5.561h5.919V2.6c0-1.456-1.506-2.96-2.962-2.96
	h-14.8c-2.959,0-2.959,2.96-2.959,2.96v2.96h8.879v5.917l-6.29,12.58c-1.774-0.425-3.647-0.741-5.547-0.741
	C4.75,23.316-5.848,33.921-5.848,47c0,13.076,10.598,23.674,23.678,23.674c13.075,0,23.679-10.598,23.679-23.674c0,0,5.92,0,8.878,0
	c2.959,0,2.959-2.964,2.959-2.964c0.614-8.703,5.096-15.531,10.92-19.979c4.023-3.075,8.36-4.968,12.763-5.919v3.7v2.405
	C66.819,26.876,59.267,35.969,59.267,47c0,13.076,10.606,23.677,23.677,23.677c13.076,0,23.683-10.601,23.683-23.677
	c0-10.823-7.288-19.746-17.202-22.573l-6.48-12.95V-3.319c0-1.716-1.373-3.626-2.958-4.255L68.15-12.199z M35.589,17.4h26.64
	c-5.927,2.96-14.8,17.758-14.8,23.682l-6.848-0.003c-1.497-5.807-4.912-10.694-9.801-13.876L35.589,17.4z M17.83,32.202
	c8.173,0,14.8,6.625,14.8,14.799c0,8.167-6.627,14.799-14.8,14.799C9.655,61.799,3.028,55.167,3.028,47
	C3.028,38.827,9.655,32.202,17.83,32.202L17.83,32.202z M82.943,32.202c8.173,0,14.805,6.625,14.805,14.799
	c0,8.167-6.632,14.799-14.805,14.799c-8.168,0-14.793-6.632-14.793-14.799C68.15,38.827,74.775,32.202,82.943,32.202L82.943,32.202z
	"/>
</svg>
