<?xml version="1.0" encoding="utf-8"?>
<!-- Generator: Adobe Illustrator 16.0.0, SVG Export Plug-In . SVG Version: 6.00 Build 0)  -->
<!DOCTYPE svg PUBLIC "-//W3C//DTD SVG 1.1//EN" "http://www.w3.org/Graphics/SVG/1.1/DTD/svg11.dtd">
<svg version="1.1" id="Layer_1" xmlns="http://www.w3.org/2000/svg" xmlns:xlink="http://www.w3.org/1999/xlink" x="0px" y="0px"
	 width="81.59px" height="99.992px" viewBox="0 0 81.59 99.992" enable-background="new 0 0 81.59 99.992" xml:space="preserve">
<path d="M68.848,68.51"/>
<path d="M12.687,68.51"/>
<g>
	<path d="M62.552,29.186c-0.649-3.266-2.731-4.568-5.868-5.867c-3.065-1.286-10.438-2.815-15.89-2.862
		c-5.461,0.047-12.833,1.577-15.921,2.863c-3.114,1.299-5.196,2.601-5.834,5.867L16.693,47.21v24.868h4.041v3.878
		c-0.016,4.769,6.939,4.769,6.942,0v-3.878h12.842h0.032h13.364v3.878c-0.009,4.769,6.947,4.769,6.941,0v-3.878h4.041V47.21
		L62.552,29.186z M30.87,25.014h9.68h10.168c1.942-0.005,1.942,2.925,0,2.934h-10.2H30.87C28.919,27.939,28.919,25.009,30.87,25.014
		z M24.188,64.29c-1.832-0.01-3.327-1.503-3.324-3.357c-0.003-1.831,1.492-3.325,3.324-3.325c1.854,0,3.348,1.494,3.358,3.325
		C27.536,62.787,26.042,64.281,24.188,64.29z M40.55,49.1H22.853c-1.728,0.016-2.091-1.229-1.922-2.477l1.825-13.103
		c0.251-1.578,0.79-2.625,2.867-2.64h14.896h15.449c2.067,0.015,2.607,1.062,2.868,2.64l1.825,13.103
		c0.158,1.248-0.205,2.493-1.924,2.477H40.55z M57.368,64.29c-1.831-0.01-3.324-1.503-3.324-3.357c0-1.831,1.493-3.325,3.324-3.325
		c1.854,0,3.349,1.494,3.357,3.325C60.717,62.787,59.223,64.281,57.368,64.29z"/>
	<path d="M40.55,20.453c0.08,0,0.164,0.003,0.245,0.004c0.081,0,0.164-0.004,0.245-0.004H40.55z"/>
</g>
</svg>
