<?xml version="1.0" encoding="utf-8"?>
<!DOCTYPE svg PUBLIC "-//W3C//DTD SVG 1.1//EN" "http://www.w3.org/Graphics/SVG/1.1/DTD/svg11.dtd">
<svg version="1.1" xmlns="http://www.w3.org/2000/svg" xmlns:xlink="http://www.w3.org/1999/xlink" x="0px" y="0px" width="50px" height="50px" viewBox="0 0 50 50" enable-background="new 0 0 50 50" xml:space="preserve">
	<path d="M39.568,33.115c-0.184,0-0.367,0.01-0.547,0.03c-0.334-1.118-0.668-2.237-1.004-3.354l-1.359-4.529
		c-0.118-0.394-0.218-0.793-0.318-1.193c-0.232-0.921-0.473-1.874-0.922-2.79c-0.682-1.385-1.594-2.589-2.396-3.585
		c-0.548-0.68-1.152-1.308-1.806-1.88h2.001c0.503,0,0.908-0.407,0.908-0.908c0-0.5-0.405-0.908-0.908-0.908h-4.552
		c-2.33-1.336-5.004-2.092-7.743-2.131v-0.692c0-0.866-0.705-1.57-1.57-1.57h-2.237c-0.064-0.015-0.13-0.023-0.2-0.023
		c0-0.155,0.127-0.282,0.281-0.282h5.872c0.501,0,0.908-0.407,0.908-0.908c0-0.501-0.406-0.907-0.908-0.907h-5.872
		c-0.062,0-0.124,0.006-0.183,0.019c-1.007,0.089-1.805,0.887-1.895,1.895c-0.012,0.059-0.019,0.12-0.019,0.184
		c0,0.062,0.006,0.124,0.019,0.183c0.093,0.927,0.869,1.656,1.82,1.656h2.167v3.043c-7.418,0.471-13.312,6.652-13.312,14.188
		c0,7.841,6.379,14.22,14.22,14.22c7.841,0,14.221-6.379,14.221-14.22c0-7.536-5.894-13.718-13.313-14.188v-0.782
		c2.476,0.041,4.889,0.739,6.977,1.969c0.025,0.019,0.055,0.033,0.082,0.048c1.381,0.825,2.615,1.88,3.627,3.135
		c0.739,0.917,1.576,2.021,2.179,3.247c0.366,0.743,0.573,1.564,0.79,2.433c0.108,0.425,0.216,0.852,0.342,1.271l1.358,4.528
		c0.336,1.119,0.671,2.238,1.005,3.357c-1.627,0.834-2.745,2.524-2.745,4.475c0,2.773,2.257,5.029,5.03,5.029
		c2.774,0,5.03-2.256,5.03-5.029S42.343,33.115,39.568,33.115z M32.42,28.651c0,6.841-5.563,12.405-12.404,12.405
		c-6.84,0-12.405-5.564-12.405-12.405c0-6.534,5.08-11.9,11.497-12.368v11.222c-0.315,0.25-0.523,0.625-0.55,1.052l-2.602,1.741
		c-0.417,0.279-0.528,0.842-0.25,1.26c0.175,0.261,0.462,0.402,0.755,0.402c0.174,0,0.35-0.05,0.504-0.152l2.626-1.76
		c0.135,0.042,0.275,0.07,0.423,0.07c0.763,0,1.381-0.583,1.454-1.325l2.872-1.922c0.417-0.279,0.528-0.843,0.249-1.259
		c-0.278-0.417-0.842-0.528-1.259-0.25l-2.407,1.611V16.284C27.342,16.75,32.42,22.118,32.42,28.651z M39.568,41.359
		c-1.772,0-3.215-1.443-3.215-3.215c0-1.126,0.584-2.117,1.463-2.692l0.553,1.851c-0.168,0.238-0.268,0.527-0.268,0.842
		c0,0.811,0.656,1.467,1.467,1.467s1.468-0.656,1.468-1.467c0-0.619-0.384-1.146-0.927-1.361l-0.555-1.854c0.006,0,0.01,0,0.014,0
		c1.772,0,3.215,1.442,3.215,3.215C42.783,39.916,41.341,41.359,39.568,41.359z"/>
	<path d="M39.568,33.115c-0.184,0-0.367,0.01-0.547,0.03c-0.334-1.118-0.668-2.237-1.004-3.354l-1.359-4.529
		c-0.118-0.393-0.218-0.793-0.318-1.192c-0.232-0.921-0.473-1.874-0.922-2.79c-0.682-1.385-1.594-2.589-2.396-3.585
		c-0.548-0.68-1.152-1.308-1.806-1.88h2.001c0.503,0,0.908-0.407,0.908-0.908c0-0.5-0.405-0.908-0.908-0.908h-4.552
		c-2.33-1.336-5.004-2.092-7.743-2.131v-0.692c0-0.866-0.705-1.57-1.57-1.57h-2.237c-0.064-0.015-0.13-0.023-0.2-0.023
		c0-0.155,0.127-0.282,0.281-0.282h5.872c0.501,0,0.908-0.407,0.908-0.908c0-0.501-0.406-0.907-0.908-0.907h-5.872
		c-0.062,0-0.124,0.006-0.183,0.019c-1.007,0.089-1.805,0.887-1.895,1.895c-0.012,0.059-0.019,0.12-0.019,0.184
		c0,0.062,0.006,0.124,0.019,0.183c0.093,0.927,0.869,1.656,1.82,1.656h2.167v3.043c-7.418,0.471-13.312,6.652-13.312,14.188
		c0,7.841,6.379,14.22,14.22,14.22c7.841,0,14.221-6.379,14.221-14.22c0-7.536-5.894-13.718-13.313-14.188v-0.782
		c2.476,0.041,4.889,0.739,6.977,1.969c0.025,0.019,0.055,0.033,0.082,0.048c1.381,0.825,2.615,1.88,3.627,3.135
		c0.739,0.917,1.576,2.021,2.179,3.247c0.366,0.743,0.573,1.564,0.79,2.433c0.108,0.425,0.216,0.852,0.342,1.271l1.358,4.527
		c0.336,1.119,0.671,2.238,1.005,3.357c-1.627,0.834-2.745,2.524-2.745,4.475c0,2.773,2.257,5.029,5.03,5.029
		c2.774,0,5.03-2.256,5.03-5.029S42.343,33.115,39.568,33.115z M32.42,28.651c0,6.841-5.563,12.405-12.404,12.405
		c-6.84,0-12.405-5.564-12.405-12.405c0-6.534,5.08-11.9,11.497-12.368v11.222c-0.315,0.25-0.523,0.625-0.55,1.052l-2.602,1.741
		c-0.417,0.279-0.528,0.842-0.25,1.26c0.175,0.261,0.462,0.402,0.755,0.402c0.174,0,0.35-0.05,0.504-0.152l2.626-1.76
		c0.135,0.042,0.275,0.07,0.423,0.07c0.763,0,1.381-0.583,1.454-1.325l2.872-1.922c0.417-0.279,0.528-0.843,0.249-1.259
		c-0.278-0.417-0.842-0.528-1.259-0.25l-2.407,1.611V16.284C27.342,16.75,32.42,22.118,32.42,28.651z M39.568,41.359
		c-1.772,0-3.215-1.443-3.215-3.215c0-1.126,0.584-2.117,1.463-2.692l0.553,1.851c-0.168,0.238-0.268,0.527-0.268,0.842
		c0,0.811,0.656,1.467,1.467,1.467s1.468-0.656,1.468-1.467c0-0.619-0.384-1.146-0.927-1.361l-0.555-1.854c0.006,0,0.01,0,0.014,0
		c1.772,0,3.215,1.442,3.215,3.215C42.783,39.916,41.341,41.359,39.568,41.359z"/>
</svg>
