<?xml version="1.0" encoding="utf-8"?>
<!-- Generator: Adobe Illustrator 16.0.0, SVG Export Plug-In . SVG Version: 6.00 Build 0)  -->
<!DOCTYPE svg PUBLIC "-//W3C//DTD SVG 1.1//EN" "http://www.w3.org/Graphics/SVG/1.1/DTD/svg11.dtd">
<svg version="1.1" id="Layer_1" xmlns="http://www.w3.org/2000/svg" xmlns:xlink="http://www.w3.org/1999/xlink" x="0px" y="0px"
	 width="100px" height="86.111px" viewBox="0 0 100 86.111" enable-background="new 0 0 100 86.111" xml:space="preserve">
<g>
	<path d="M92.646,18.702H72.542v-8.454c0-3.334-2.707-6.045-6.045-6.045H35.08c-3.342,0-6.056,2.71-6.056,6.045v8.454H8.919
		c-3.325,0-6.042,2.71-6.042,6.038v47.15c0,3.331,2.717,6.038,6.042,6.038h83.727c3.344,0,6.054-2.707,6.054-6.038V24.74
		C98.699,21.413,95.989,18.702,92.646,18.702z M35.795,14.893c0-2.473,0.806-4.487,3.29-4.487h23.393
		c2.486,0,3.297,2.014,3.297,4.487v3.809h-29.98V14.893z"/>
	<g>
		<path d="M92.646,18.702H72.542v-8.454c0-3.334-2.707-6.045-6.045-6.045H35.08c-3.342,0-6.056,2.71-6.056,6.045v8.454H8.919
			c-3.325,0-6.042,2.71-6.042,6.038v47.15c0,3.331,2.717,6.038,6.042,6.038h83.727c3.344,0,6.054-2.707,6.054-6.038V24.74
			C98.699,21.413,95.989,18.702,92.646,18.702z M35.795,14.893c0-2.473,0.806-4.487,3.29-4.487h23.393
			c2.486,0,3.297,2.014,3.297,4.487v3.809h-29.98V14.893z"/>
	</g>
</g>
</svg>
