<?xml version="1.0" encoding="utf-8"?>
<!-- Generator: Adobe Illustrator 16.0.0, SVG Export Plug-In . SVG Version: 6.00 Build 0)  -->
<!DOCTYPE svg PUBLIC "-//W3C//DTD SVG 1.1//EN" "http://www.w3.org/Graphics/SVG/1.1/DTD/svg11.dtd">
<svg version="1.1" id="Layer_1" xmlns="http://www.w3.org/2000/svg" xmlns:xlink="http://www.w3.org/1999/xlink" x="0px" y="0px"
	 width="99.885px" height="100px" viewBox="0 0 99.885 100" enable-background="new 0 0 99.885 100" xml:space="preserve">
<path d="M53.411,23.876c3.391,0.272,6.35-2.347,6.614-5.827c0.262-3.5-2.251-6.56-5.637-6.832c-3.392-0.272-6.351,2.327-6.614,5.826
	S50.037,23.604,53.411,23.876z"/>
<path d="M48.211,26.475c1.207-0.859,2.696-1.446,4.307-1.321c2.113,0.189,3.857,1.531,4.892,3.186l6.202,12.701l8.454,6.014
	c0.729,0.566,1.154,1.51,1.094,2.516c-0.121,1.573-1.46,2.746-3,2.62c-0.448-0.021-0.812-0.21-1.257-0.419l-9.224-6.56
	c-0.283-0.251-0.507-0.524-0.688-0.859l-2.331-4.759l-2.772,12.68l10.899,13.308c0.244,0.421,0.406,0.881,0.508,1.362l2.938,16.076
	c-0.02,0.355,0.04,0.585,0.02,0.88c-0.182,2.367-2.188,4.13-4.479,3.939c-1.887-0.146-3.306-1.614-3.751-3.395l-2.778-15.068
	l-8.842-10.018l-2.067,9.767c-0.061,0.46-0.647,1.425-0.832,1.822l-8.482,14.796c-0.861,1.363-2.27,2.222-3.902,2.097
	c-2.291-0.188-4.002-2.263-3.82-4.632c0.05-0.671,0.324-1.362,0.558-1.844l7.904-13.707l6.568-30.179l-4.298,3.603l-2.27,10.752
	c-0.303,1.362-1.519,2.493-2.958,2.368c-1.521-0.127-2.666-1.488-2.554-3.08c0.019-0.127,0.041-0.253,0.061-0.378l2.715-12.533
	c0.142-0.566,0.446-1.027,0.851-1.383L48.211,26.475z"/>
</svg>
