<?xml version="1.0" encoding="utf-8"?>
<!-- Generator: Adobe Illustrator 16.0.4, SVG Export Plug-In . SVG Version: 6.00 Build 0)  -->
<!DOCTYPE svg PUBLIC "-//W3C//DTD SVG 1.1//EN" "http://www.w3.org/Graphics/SVG/1.1/DTD/svg11.dtd">
<svg version="1.1" xmlns="http://www.w3.org/2000/svg" xmlns:xlink="http://www.w3.org/1999/xlink" x="0px" y="0px" width="50px"
	 height="50px" viewBox="0 0 50 50" enable-background="new 0 0 50 50" xml:space="preserve">
	<path d="M39.639,20.682c-1.588,0-3.082,0.407-4.386,1.118l-2.948-4.258l1.378-4.41
		c0.478,0.16,0.956,0.303,1.474,0.219c0.547-0.088,1.615-0.571,1.52-1.296c-0.297-2.233-4.345-0.825-5.621-0.654
		c-0.031,0.004-0.055,0.02-0.083,0.028c-0.594,0.023-1.185,0.066-1.769,0.24c-0.061,0.018-0.104,0.048-0.148,0.079
		c-0.01,0.003-0.018,0.009-0.027,0.014c-0.006,0.005-0.014,0.008-0.018,0.012c-0.351,0.188-0.326,0.78,0.076,0.908
		c0.068,0.048,0.148,0.086,0.25,0.095c0.846,0.07,1.693,0.027,2.541,0.041l-1.271,4.064h-13.46l0.606-2.975
		c0.054-0.267-0.015-0.545-0.187-0.755c-0.173-0.212-0.432-0.335-0.704-0.335h-4.645c-1.467,0-2.661,1.194-2.661,2.661
		c0,1.777,1.445,3.223,3.222,3.223c0.502,0,0.909-0.407,0.909-0.909s-0.407-0.909-0.909-0.909c-0.774,0-1.404-0.629-1.404-1.404
		c0-0.465,0.378-0.842,0.843-0.842h3.531l-0.604,2.97c0,0.002,0,0.003,0,0.004l-0.71,3.492c-0.864-0.271-1.782-0.417-2.733-0.417
		c-5.061,0-9.177,4.118-9.177,9.178c0,5.061,4.117,9.178,9.177,9.178c5.06,0,9.177-4.117,9.177-9.178
		c0-3.45-1.916-6.459-4.738-8.026l0.198-0.972l9.194,10.411c-0.015,0.085-0.026,0.173-0.026,0.262c0,0.812,0.658,1.47,1.471,1.47
		c0.535,0,1-0.289,1.256-0.719l2.482-0.324c0.953,4.049,4.588,7.076,8.926,7.076c5.06,0,9.176-4.117,9.176-9.178
		C48.814,24.799,44.698,20.682,39.639,20.682z M19.058,29.859c0,4.059-3.301,7.359-7.359,7.359S4.34,33.918,4.34,29.859
		c0-4.058,3.301-7.359,7.359-7.359c0.83,0,1.624,0.144,2.368,0.398l-0.339,1.672l-2.236,3.841c-0.713,0.101-1.262,0.708-1.262,1.448
		c0,0.812,0.658,1.471,1.47,1.471c0.812,0,1.47-0.658,1.47-1.471c0-0.19-0.039-0.37-0.105-0.538l2.309-3.966
		c0.05-0.085,0.085-0.179,0.105-0.276l0.276-1.355C17.743,25.043,19.058,27.299,19.058,29.859z M16.848,18.697h13.189l-3.449,11.027
		L16.86,18.708C16.855,18.705,16.851,18.702,16.848,18.697z M28.266,30.448l3.35-10.707l2.137,3.086
		c-2.01,1.685-3.291,4.21-3.291,7.032c0,0.102,0.011,0.199,0.015,0.299L28.266,30.448z M32.279,29.859
		c0-2.203,0.977-4.177,2.516-5.527l3.337,4.82l-5.851,0.768C32.281,29.899,32.279,29.881,32.279,29.859z M39.639,37.219
		c-3.414,0-6.284-2.34-7.112-5.496l6.177-0.811c0.265,0.258,0.625,0.418,1.025,0.418c0.812,0,1.469-0.658,1.469-1.471
		c0-0.779-0.607-1.41-1.374-1.461l-3.525-5.088c1.005-0.514,2.138-0.81,3.341-0.81c4.058,0,7.358,3.301,7.358,7.359
		C46.997,33.918,43.696,37.219,39.639,37.219z"/>
</svg>
