<svg xmlns="http://www.w3.org/2000/svg" xmlns:xlink="http://www.w3.org/1999/xlink" version="1.1" id="Layer_1" x="0px" y="0px" width="94.596px" height="100px" viewBox="0 0 94.596 100" enable-background="new 0 0 94.596 100" xml:space="preserve">
<path d="M18.991,63.132v24.375c0,0.95-0.312,1.744-0.905,2.317c-0.592,0.605-1.367,0.892-2.317,0.892  c-0.957,0-1.777-0.286-2.416-0.892c-0.677-0.573-0.996-1.367-0.996-2.317V63.132H3.229l9.499-32.097h-1.634  c-1.042,3.607-1.92,6.498-2.604,8.789c-0.625,2.292-1.309,4.453-1.901,6.543c-0.684,2.057-1.133,3.366-1.185,3.815  C4.994,51.543,4.095,52.2,2.683,52.2L1.96,52.024C0.638,51.543,0,50.684,0,49.473c0-0.332,0.046-0.605,0.183-0.879  c0.091-0.234,0.364-1.042,0.684-2.409c0.364-1.361,0.859-3.047,1.452-5.007c0.592-1.992,1.23-4.153,1.908-6.465  c0.684-2.324,1.315-4.563,2.09-6.725c0.456-1.654,1.452-3.158,3.001-4.459c1.543-1.354,3.138-1.966,4.812-1.966h11.178  c1.725,0,3.405,0.612,4.909,1.966c1.458,1.302,2.507,2.806,3.093,4.459c0.625,2.162,1.27,4.401,1.901,6.725  c0.645,2.312,1.328,4.473,1.875,6.465c0.58,1.96,1.087,3.646,1.445,5.007c0.358,1.367,0.592,2.174,0.723,2.409l0.182,0.723  c0,1.465-0.684,2.324-1.999,2.708L36.751,52.2c-1.445,0-2.363-0.657-2.721-2.018c-0.098-0.449-0.501-1.758-1.042-3.815  c-0.638-2.09-1.282-4.251-2.005-6.543s-1.582-5.182-2.624-8.789h-1.641l9.486,32.097H27.22v24.375c0,0.95-0.273,1.744-1.002,2.317  c-0.638,0.605-1.413,0.892-2.363,0.892c-1.003,0-1.732-0.286-2.363-0.892c-0.593-0.573-0.859-1.367-0.859-2.317V63.132H18.991z"/>
<path d="M19.896,19.551c1.914,0,3.555-0.625,4.824-1.94c1.315-1.341,1.999-3.008,1.999-5.02c0-1.914-0.684-3.555-1.999-4.909  c-1.27-1.393-2.91-2.09-4.824-2.09c-2.038,0-3.724,0.697-5.13,2.09c-1.367,1.354-2.038,2.995-2.038,4.909  c0,2.012,0.67,3.678,2.038,5.02C16.172,18.926,17.858,19.551,19.896,19.551z"/>
<path d="M70.065,21.354c-2.454,0-4.544,0.905-6.321,2.656c-1.771,1.823-2.683,3.952-2.683,6.315V52.2c0,0.82,0.28,1.569,0.912,2.162  c0.586,0.592,1.314,0.859,2.142,0.859c0.95,0,1.68-0.268,2.266-0.859c0.508-0.593,0.774-1.342,0.774-2.162V32.643h1.589v54.161  c0,1.041,0.456,1.998,1.321,2.747c0.814,0.82,1.765,1.165,2.852,1.165c1.186,0,2.143-0.345,2.91-1.165  c0.82-0.749,1.191-1.706,1.191-2.747v-31.4h1.765v31.4c0,1.041,0.41,1.998,1.179,2.747c0.774,0.82,1.777,1.165,3.008,1.165  c1.041,0,1.946-0.345,2.773-1.165c0.762-0.749,1.119-1.706,1.119-2.747V32.643h1.647V52.2c0,0.82,0.267,1.569,0.813,2.162  c0.645,0.592,1.406,0.859,2.227,0.859c0.957,0,1.687-0.268,2.233-0.859c0.495-0.593,0.813-1.342,0.813-2.162V30.326  c0-2.363-0.859-4.492-2.637-6.315c-1.731-1.751-3.814-2.656-6.354-2.656H70.065z"/>
<path d="M77.877,19.551c1.908,0,3.588-0.625,4.948-1.94c1.354-1.341,2.044-3.008,2.044-5.02c0-1.914-0.689-3.555-2.044-4.909  c-1.36-1.393-3.04-2.09-4.948-2.09c-1.998,0-3.685,0.697-4.961,2.09c-1.354,1.354-1.992,2.995-1.992,4.909  c0,2.012,0.639,3.678,1.992,5.02C74.193,18.926,75.879,19.551,77.877,19.551z"/>
<rect x="46.751" width="6.901" height="100"/>
</svg>