<?xml version="1.0" encoding="utf-8"?>
<!-- Generator: Adobe Illustrator 16.0.4, SVG Export Plug-In . SVG Version: 6.00 Build 0)  -->
<!DOCTYPE svg PUBLIC "-//W3C//DTD SVG 1.1//EN" "http://www.w3.org/Graphics/SVG/1.1/DTD/svg11.dtd">
<svg version="1.1" xmlns="http://www.w3.org/2000/svg" xmlns:xlink="http://www.w3.org/1999/xlink" x="0px" y="0px" width="50px"
	 height="50px" viewBox="0 0 50 50" enable-background="new 0 0 50 50" xml:space="preserve">
<g id="stroller" display="none">
	<circle display="inline" fill="#8EC449" cx="25.157" cy="23.628" r="19.297"/>
	<circle fill="#8EC449" cx="25.157" cy="23.628" r="19.297"/>
	<g display="inline">
		<circle cx="20.148" cy="8.092" r="3.87"/>
		<path d="M26.234,27.496c0.109,2.104-1.583,3.902-3.78,4.018l-0.379,0.02c-2.197,0.115-4.068-1.496-4.178-3.6l-0.589-11.246
			c-0.111-2.104,1.582-3.903,3.778-4.019l0.38-0.02c2.197-0.115,4.068,1.498,4.177,3.602L26.234,27.496z"/>
		<g>
			<path d="M28.158,19.677c-0.299,0-0.602-0.088-0.866-0.272l-5.016-3.498c-0.688-0.48-0.856-1.426-0.377-2.114
				c0.481-0.687,1.426-0.855,2.114-0.377l5.016,3.499c0.688,0.479,0.856,1.426,0.377,2.113
				C29.109,19.451,28.639,19.677,28.158,19.677z"/>
		</g>
		<g>
			<path d="M28.16,19.677c-0.389,0-0.777-0.148-1.073-0.444c-0.593-0.593-0.593-1.554,0-2.146l3.782-3.783
				c0.592-0.593,1.555-0.593,2.146,0c0.593,0.593,0.593,1.554,0,2.146l-3.783,3.783C28.938,19.529,28.548,19.677,28.16,19.677z"/>
		</g>
		<path d="M20.625,28.781c-0.885-0.56-2.057-0.295-2.617,0.59L9.849,42.273c-0.498,0.787-0.341,2.158,0.321,2.767
			c0.346,0.367,0.833,0.96,1.377,0.96h3.036c1.047,0,1.897-1.209,1.897-2.258c0-0.967-0.724-1.935-1.659-2.054l6.393-10.198
			C21.774,30.604,21.51,29.342,20.625,28.781z"/>
		<g>
			<path d="M36.068,41.959c-0.443,0-0.89-0.156-1.25-0.471L21.935,30.199c-0.789-0.69-0.867-1.889-0.177-2.678
				c0.69-0.787,1.889-0.867,2.677-0.176L37.32,38.635c0.787,0.689,0.866,1.889,0.176,2.677
				C37.121,41.74,36.596,41.959,36.068,41.959z"/>
		</g>
		<g>
			<path d="M36.276,41.798c-0.485,0-0.971-0.185-1.341-0.555c-0.742-0.741-0.742-1.942,0-2.683l2.146-2.148
				c0.741-0.74,1.942-0.739,2.683,0c0.742,0.742,0.742,1.942,0.001,2.684l-2.146,2.146C37.248,41.613,36.763,41.798,36.276,41.798z"
				/>
		</g>
	</g>
</g>
<g id="speedwalker">
	<g>
		<g>
			<circle fill="#84909D" cx="41.809" cy="12.207" r="4.217"/>
			<path fill="#84909D" d="M49.438,17.485c-0.612-0.548-1.554-0.497-2.102,0.116l-3.189,3.558l-3.062-3.589
				c-0.376-0.518-0.874-0.973-1.5-1.292l-0.332-0.169c-1.922-0.979-4.191-0.381-5.067,1.338l-4.606,9.044
				c-0.096,0.092,0.076-0.115,0,0L20.91,42.019c-0.572,0.854-0.344,2.008,0.509,2.58c0.319,0.213,0.678,0.315,1.034,0.315
				c0.601,0,1.188-0.289,1.547-0.824l6.944-12.854c0.174,0.122,0.263,0.182,0.457,0.282l0.332,0.168
				c0.294,0.15,0.599,0.251,0.904,0.329l1.904,3.321l-2.713,7.517c-0.522,0.886-0.227,2.024,0.657,2.547
				c0.298,0.176,0.622,0.258,0.943,0.258c0.637,0,1.257-0.327,1.605-0.916l3.261-8.447c0.34-0.576,0.345-1.289,0.012-1.87
				l-1.964-3.424c0.174-0.196,0.331-0.411,0.455-0.651l4.222-8.287l1.966,2.37C43.265,24.76,43.671,25,44.102,25
				c0.006,0,0.012,0,0.018,0c0.423,0,0.826-0.225,1.108-0.54l4.325-4.838C50.101,19.011,50.049,18.034,49.438,17.485z"/>
		</g>
	</g>
</g>
<g id="cruiser" display="none">
	<path display="inline" d="M39.568,33.115c-0.184,0-0.367,0.01-0.547,0.03c-0.334-1.118-0.668-2.237-1.004-3.354l-1.359-4.529
		c-0.118-0.394-0.218-0.793-0.318-1.193c-0.232-0.921-0.473-1.874-0.922-2.79c-0.682-1.385-1.594-2.589-2.396-3.585
		c-0.548-0.68-1.152-1.308-1.806-1.88h2.001c0.503,0,0.908-0.407,0.908-0.908c0-0.5-0.405-0.908-0.908-0.908h-4.552
		c-2.33-1.336-5.004-2.092-7.743-2.131v-0.692c0-0.866-0.705-1.57-1.57-1.57h-2.237c-0.064-0.015-0.13-0.023-0.2-0.023
		c0-0.155,0.127-0.282,0.281-0.282h5.872c0.501,0,0.908-0.407,0.908-0.908c0-0.501-0.406-0.907-0.908-0.907h-5.872
		c-0.062,0-0.124,0.006-0.183,0.019c-1.007,0.089-1.805,0.887-1.895,1.895c-0.012,0.059-0.019,0.12-0.019,0.184
		c0,0.062,0.006,0.124,0.019,0.183c0.093,0.927,0.869,1.656,1.82,1.656h2.167v3.043c-7.418,0.471-13.312,6.652-13.312,14.188
		c0,7.841,6.379,14.22,14.22,14.22c7.841,0,14.221-6.379,14.221-14.22c0-7.536-5.894-13.718-13.313-14.188v-0.782
		c2.476,0.041,4.889,0.739,6.977,1.969c0.025,0.019,0.055,0.033,0.082,0.048c1.381,0.825,2.615,1.88,3.627,3.135
		c0.739,0.917,1.576,2.021,2.179,3.247c0.366,0.743,0.573,1.564,0.79,2.433c0.108,0.425,0.216,0.852,0.342,1.271l1.358,4.528
		c0.336,1.119,0.671,2.238,1.005,3.357c-1.627,0.834-2.745,2.524-2.745,4.475c0,2.773,2.257,5.029,5.03,5.029
		c2.774,0,5.03-2.256,5.03-5.029S42.343,33.115,39.568,33.115z M32.42,28.651c0,6.841-5.563,12.405-12.404,12.405
		c-6.84,0-12.405-5.564-12.405-12.405c0-6.534,5.08-11.9,11.497-12.368v11.222c-0.315,0.25-0.523,0.625-0.55,1.052l-2.602,1.741
		c-0.417,0.279-0.528,0.842-0.25,1.26c0.175,0.261,0.462,0.402,0.755,0.402c0.174,0,0.35-0.05,0.504-0.152l2.626-1.76
		c0.135,0.042,0.275,0.07,0.423,0.07c0.763,0,1.381-0.583,1.454-1.325l2.872-1.922c0.417-0.279,0.528-0.843,0.249-1.259
		c-0.278-0.417-0.842-0.528-1.259-0.25l-2.407,1.611V16.284C27.342,16.75,32.42,22.118,32.42,28.651z M39.568,41.359
		c-1.772,0-3.215-1.443-3.215-3.215c0-1.126,0.584-2.117,1.463-2.692l0.553,1.851c-0.168,0.238-0.268,0.527-0.268,0.842
		c0,0.811,0.656,1.467,1.467,1.467s1.468-0.656,1.468-1.467c0-0.619-0.384-1.146-0.927-1.361l-0.555-1.854c0.006,0,0.01,0,0.014,0
		c1.772,0,3.215,1.442,3.215,3.215C42.783,39.916,41.341,41.359,39.568,41.359z"/>
</g>
<g id="racer" display="none">
	<path display="inline" fill="#84909D" d="M39.639,20.682c-1.588,0-3.082,0.407-4.386,1.118l-2.948-4.258l1.378-4.41
		c0.478,0.16,0.956,0.303,1.474,0.219c0.547-0.088,1.615-0.571,1.52-1.296c-0.297-2.233-4.345-0.825-5.621-0.654
		c-0.031,0.004-0.055,0.02-0.083,0.028c-0.594,0.023-1.185,0.066-1.769,0.24c-0.061,0.018-0.104,0.048-0.148,0.079
		c-0.01,0.003-0.018,0.009-0.027,0.014c-0.006,0.005-0.014,0.008-0.018,0.012c-0.351,0.188-0.326,0.78,0.076,0.908
		c0.068,0.048,0.148,0.086,0.25,0.095c0.846,0.07,1.693,0.027,2.541,0.041l-1.271,4.064h-13.46l0.606-2.975
		c0.054-0.267-0.015-0.545-0.187-0.755c-0.173-0.212-0.432-0.335-0.704-0.335h-4.645c-1.467,0-2.661,1.194-2.661,2.661
		c0,1.777,1.445,3.223,3.222,3.223c0.502,0,0.909-0.407,0.909-0.909s-0.407-0.909-0.909-0.909c-0.774,0-1.404-0.629-1.404-1.404
		c0-0.465,0.378-0.842,0.843-0.842h3.531l-0.604,2.97c0,0.002,0,0.003,0,0.004l-0.71,3.492c-0.864-0.271-1.782-0.417-2.733-0.417
		c-5.061,0-9.177,4.118-9.177,9.178c0,5.061,4.117,9.178,9.177,9.178c5.06,0,9.177-4.117,9.177-9.178
		c0-3.45-1.916-6.459-4.738-8.026l0.198-0.972l9.194,10.411c-0.015,0.085-0.026,0.173-0.026,0.262c0,0.812,0.658,1.47,1.471,1.47
		c0.535,0,1-0.289,1.256-0.719l2.482-0.324c0.953,4.049,4.588,7.076,8.926,7.076c5.06,0,9.176-4.117,9.176-9.178
		C48.814,24.799,44.698,20.682,39.639,20.682z M19.058,29.859c0,4.059-3.301,7.359-7.359,7.359S4.34,33.918,4.34,29.859
		c0-4.058,3.301-7.359,7.359-7.359c0.83,0,1.624,0.144,2.368,0.398l-0.339,1.672l-2.236,3.841c-0.713,0.101-1.262,0.708-1.262,1.448
		c0,0.812,0.658,1.471,1.47,1.471c0.812,0,1.47-0.658,1.47-1.471c0-0.19-0.039-0.37-0.105-0.538l2.309-3.966
		c0.05-0.085,0.085-0.179,0.105-0.276l0.276-1.355C17.743,25.043,19.058,27.299,19.058,29.859z M16.848,18.697h13.189l-3.449,11.027
		L16.86,18.708C16.855,18.705,16.851,18.702,16.848,18.697z M28.266,30.448l3.35-10.707l2.137,3.086
		c-2.01,1.685-3.291,4.21-3.291,7.032c0,0.102,0.011,0.199,0.015,0.299L28.266,30.448z M32.279,29.859
		c0-2.203,0.977-4.177,2.516-5.527l3.337,4.82l-5.851,0.768C32.281,29.899,32.279,29.881,32.279,29.859z M39.639,37.219
		c-3.414,0-6.284-2.34-7.112-5.496l6.177-0.811c0.265,0.258,0.625,0.418,1.025,0.418c0.812,0,1.469-0.658,1.469-1.471
		c0-0.779-0.607-1.41-1.374-1.461l-3.525-5.088c1.005-0.514,2.138-0.81,3.341-0.81c4.058,0,7.358,3.301,7.358,7.359
		C46.997,33.918,43.696,37.219,39.639,37.219z"/>
</g>
</svg>
