<?xml version="1.0" encoding="utf-8"?>
<!-- Generator: Adobe Illustrator 16.0.4, SVG Export Plug-In . SVG Version: 6.00 Build 0)  -->
<!DOCTYPE svg PUBLIC "-//W3C//DTD SVG 1.1//EN" "http://www.w3.org/Graphics/SVG/1.1/DTD/svg11.dtd">
<svg version="1.1" xmlns="http://www.w3.org/2000/svg" xmlns:xlink="http://www.w3.org/1999/xlink" x="0px" y="0px" width="50px"
	 height="50px" viewBox="0 0 50 50" enable-background="new 0 0 50 50" xml:space="preserve">
	<circle cx="41.809" cy="12.207" r="4.217"/>
	<path d="M49.438,17.485c-0.612-0.548-1.554-0.497-2.102,0.116l-3.189,3.558l-3.062-3.589
		c-0.376-0.518-0.874-0.973-1.5-1.292l-0.332-0.169c-1.922-0.979-4.191-0.381-5.067,1.338l-4.606,9.044
		c-0.096,0.092,0.076-0.115,0,0L20.91,42.019c-0.572,0.854-0.344,2.008,0.509,2.58c0.319,0.213,0.678,0.315,1.034,0.315
		c0.601,0,1.188-0.289,1.547-0.824l6.944-12.854c0.174,0.122,0.263,0.182,0.457,0.282l0.332,0.168
		c0.294,0.15,0.599,0.251,0.904,0.329l1.904,3.321l-2.713,7.517c-0.522,0.886-0.227,2.024,0.657,2.547
		c0.298,0.176,0.622,0.258,0.943,0.258c0.637,0,1.257-0.327,1.605-0.916l3.261-8.447c0.34-0.576,0.345-1.289,0.012-1.87
		l-1.964-3.424c0.174-0.196,0.331-0.411,0.455-0.651l4.222-8.287l1.966,2.37C43.265,24.76,43.671,25,44.102,25
		c0.006,0,0.012,0,0.018,0c0.423,0,0.826-0.225,1.108-0.54l4.325-4.838C50.101,19.011,50.049,18.034,49.438,17.485z"/>
</svg>
