<?xml version="1.0" encoding="utf-8"?>
<!-- Generator: Adobe Illustrator 16.0.4, SVG Export Plug-In . SVG Version: 6.00 Build 0)  -->
<!DOCTYPE svg PUBLIC "-//W3C//DTD SVG 1.1//EN" "http://www.w3.org/Graphics/SVG/1.1/DTD/svg11.dtd">
<svg version="1.1" xmlns="http://www.w3.org/2000/svg" xmlns:xlink="http://www.w3.org/1999/xlink" x="0px" y="0px" width="50px"
	 height="50px" viewBox="0 0 50 50" enable-background="new 0 0 50 50" xml:space="preserve">
	<circle cx="20.148" cy="8.092" r="3.87"/>
	<path d="M26.234,27.496c0.109,2.104-1.583,3.902-3.78,4.018l-0.379,0.02c-2.197,0.115-4.068-1.496-4.178-3.6l-0.589-11.246
		c-0.111-2.104,1.582-3.903,3.778-4.019l0.38-0.02c2.197-0.115,4.068,1.498,4.177,3.602L26.234,27.496z"/>
	<path d="M28.158,19.677c-0.299,0-0.602-0.088-0.866-0.272l-5.016-3.498c-0.688-0.48-0.856-1.426-0.377-2.114
		c0.481-0.687,1.426-0.855,2.114-0.377l5.016,3.499c0.688,0.479,0.856,1.426,0.377,2.113
		C29.109,19.451,28.639,19.677,28.158,19.677z"/>
	<path d="M28.16,19.677c-0.389,0-0.777-0.148-1.073-0.444c-0.593-0.593-0.593-1.554,0-2.146l3.782-3.783
		c0.592-0.593,1.555-0.593,2.146,0c0.593,0.593,0.593,1.554,0,2.146l-3.783,3.783C28.938,19.529,28.548,19.677,28.16,19.677z"/>
	<path d="M20.625,28.781c-0.885-0.56-2.057-0.295-2.617,0.59L9.849,42.273c-0.498,0.787-0.341,2.158,0.321,2.767
		c0.346,0.367,0.833,0.96,1.377,0.96h3.036c1.047,0,1.897-1.209,1.897-2.258c0-0.967-0.724-1.935-1.659-2.054l6.393-10.198
		C21.774,30.604,21.51,29.342,20.625,28.781z"/>
	<path d="M36.068,41.959c-0.443,0-0.89-0.156-1.25-0.471L21.935,30.199c-0.789-0.69-0.867-1.889-0.177-2.678
		c0.69-0.787,1.889-0.867,2.677-0.176L37.32,38.635c0.787,0.689,0.866,1.889,0.176,2.677
		C37.121,41.74,36.596,41.959,36.068,41.959z"/>
	<path d="M36.276,41.798c-0.485,0-0.971-0.185-1.341-0.555c-0.742-0.741-0.742-1.942,0-2.683l2.146-2.148
		c0.741-0.74,1.942-0.739,2.683,0c0.742,0.742,0.742,1.942,0.001,2.684l-2.146,2.146C37.248,41.613,36.763,41.798,36.276,41.798z"
		/>
</svg>
