<?xml version="1.0" encoding="utf-8"?>
<!-- Generator: Adobe Illustrator 16.0.0, SVG Export Plug-In . SVG Version: 6.00 Build 0)  -->
<!DOCTYPE svg PUBLIC "-//W3C//DTD SVG 1.1//EN" "http://www.w3.org/Graphics/SVG/1.1/DTD/svg11.dtd">
<svg version="1.1" id="Layer_1" xmlns="http://www.w3.org/2000/svg" xmlns:xlink="http://www.w3.org/1999/xlink" x="0px" y="0px"
   width="66.461px" height="100px" viewBox="0 0 66.461 100" enable-background="new 0 0 66.461 100" xml:space="preserve">
<path d="M43.975,65.589c2.81-0.466,5.611-3.401,5.605-6.983V32.449c0.007-3.688-3.1-7.078-7.31-7.074H33.26h-9.042
  c-4.234-0.004-7.342,3.386-7.338,7.074v26.157c-0.004,3.582,2.798,6.519,5.606,6.983l-8.424,11.215h4.872l6.017-7.427h8.279h8.278
  l6.046,7.427h4.845L43.975,65.589z M28.474,28.077c0.001-0.656,0.56-1.196,1.203-1.205h3.552h3.553
  c0.644,0.009,1.204,0.549,1.204,1.205v2.053c0,0.653-0.528,1.207-1.204,1.204H33.23h-3.552c-0.673,0.003-1.201-0.55-1.203-1.204
  L28.474,28.077L28.474,28.077z M24.042,61.775c-1.764-0.014-3.203-1.453-3.199-3.23c-0.003-1.771,1.436-3.207,3.199-3.198
  c1.782-0.01,3.221,1.428,3.23,3.198C27.263,60.322,25.824,61.762,24.042,61.775z M24.453,44.779
  c-2.023-0.012-3.674-1.397-3.669-3.67v-4.696c0.014-1.959,1.28-3.667,3.669-3.67h8.777h8.777c2.392,0.004,3.658,1.711,3.671,3.67
  v4.696c0.005,2.273-1.646,3.659-3.671,3.67H33.23H24.453z M39.131,58.547c-0.006-1.772,1.432-3.208,3.198-3.2
  c1.783-0.009,3.223,1.428,3.23,3.2c-0.008,1.775-1.447,3.215-3.23,3.229C40.562,61.762,39.125,60.322,39.131,58.547z"/>
</svg>
