<?xml version="1.0" encoding="utf-8"?>
<!-- Generator: Adobe Illustrator 16.0.4, SVG Export Plug-In . SVG Version: 6.00 Build 0)  -->
<!DOCTYPE svg PUBLIC "-//W3C//DTD SVG 1.1//EN" "http://www.w3.org/Graphics/SVG/1.1/DTD/svg11.dtd">
<svg version="1.1" id="Layer_1" xmlns="http://www.w3.org/2000/svg" xmlns:xlink="http://www.w3.org/1999/xlink" x="0px" y="0px"
	 width="29.125px" height="18.422px" viewBox="0.031 -0.5 29.125 18.422" enable-background="new 0.031 -0.5 29.125 18.422"
	 xml:space="preserve">
<g>
	<path fill="#84909D" d="M12.929,12.014"/>
	<path fill="#84909D" d="M2.818,12.014"/>
	<g>
		<path fill="#84909D" d="M14.51,2.343c-0.197-0.997-0.834-1.393-1.789-1.789c-0.934-0.393-3.176-0.858-4.842-0.871
			C6.211-0.305,3.967,0.161,3.026,0.554C2.077,0.95,1.443,1.346,1.248,2.343l-0.713,5.49v7.577h1.231v1.18
			c-0.001,1.452,2.113,1.452,2.113,0v-1.18h3.916h0.012h4.07v1.183c-0.002,1.451,2.117,1.451,2.117,0V15.41h1.229V7.833L14.51,2.343
			z M4.852,1.07h2.955h3.1c0.59,0,0.59,0.892,0,0.895H7.795H4.852C4.26,1.962,4.26,1.069,4.852,1.07z M2.818,13.035
			c-0.561,0-1.013-0.458-1.013-1.023C1.805,11.456,2.261,11,2.818,11c0.564,0,1.015,0.456,1.02,1.012
			C3.835,12.581,3.383,13.035,2.818,13.035z M7.806,8.409H2.413c-0.526,0.003-0.64-0.377-0.584-0.755l0.555-3.992
			C2.46,3.184,2.621,2.864,3.259,2.858h4.538h4.705c0.633,0.006,0.795,0.326,0.877,0.806l0.557,3.994
			c0.047,0.375-0.064,0.755-0.592,0.752H7.806z M12.929,13.035c-0.555,0-1.012-0.458-1.012-1.023c0-0.556,0.457-1.012,1.012-1.012
			c0.564,0,1.023,0.456,1.023,1.012C13.953,12.581,13.494,13.035,12.929,13.035z"/>
		<path fill="#84909D" d="M7.806-0.319c0.025,0,0.051,0.001,0.072,0.001c0.027,0,0.053-0.001,0.078-0.001H7.806z"/>
	</g>
</g>
<g>
	<path fill="#84909D" d="M23.802,3.006c0.784,0.061,1.469-0.524,1.53-1.303c0.061-0.784-0.521-1.467-1.304-1.528
		s-1.469,0.52-1.531,1.303C22.438,2.261,23.021,2.946,23.802,3.006z"/>
	<path fill="#84909D" d="M22.596,3.587c0.284-0.192,0.627-0.325,0.999-0.295c0.488,0.042,0.891,0.342,1.13,0.711l1.437,2.841
		l1.956,1.347c0.169,0.128,0.268,0.338,0.253,0.562c-0.027,0.352-0.339,0.613-0.693,0.587c-0.104-0.006-0.188-0.048-0.291-0.094
		L25.252,7.78c-0.065-0.057-0.117-0.119-0.158-0.193l-0.541-1.064l-0.641,2.834l2.522,2.98c0.056,0.093,0.094,0.196,0.118,0.304
		l0.678,3.595c-0.004,0.08,0.011,0.131,0.004,0.199c-0.041,0.528-0.505,0.924-1.035,0.881c-0.437-0.033-0.766-0.362-0.867-0.76
		l-0.643-3.371l-2.045-2.242l-0.479,2.186c-0.013,0.104-0.15,0.32-0.192,0.407l-1.961,3.311c-0.2,0.305-0.525,0.497-0.904,0.471
		c-0.529-0.042-0.927-0.507-0.884-1.037c0.012-0.15,0.076-0.305,0.128-0.412l1.83-3.066l1.519-6.751l-0.993,0.807l-0.525,2.404
		c-0.071,0.304-0.351,0.559-0.684,0.53c-0.351-0.029-0.616-0.332-0.59-0.69c0.004-0.027,0.006-0.057,0.014-0.084l0.628-2.803
		c0.033-0.126,0.102-0.233,0.194-0.311L22.596,3.587z"/>
</g>
</svg>
