<?xml version="1.0" encoding="utf-8"?>
<!-- Generator: Adobe Illustrator 16.0.4, SVG Export Plug-In . SVG Version: 6.00 Build 0)  -->
<!DOCTYPE svg PUBLIC "-//W3C//DTD SVG 1.1//EN" "http://www.w3.org/Graphics/SVG/1.1/DTD/svg11.dtd">
<svg version="1.1" id="Layer_1" xmlns="http://www.w3.org/2000/svg" xmlns:xlink="http://www.w3.org/1999/xlink" x="0px" y="0px"
	 width="29.125px" height="18.422px" viewBox="0.031 -0.5 29.125 18.422" enable-background="new 0.031 -0.5 29.125 18.422"
	 xml:space="preserve">
<g>
	<path fill="#84909D" d="M-20.821,1.826"/>
	<path fill="#84909D" d="M-30.932,1.826"/>
	<g>
		<path fill="#84909D" d="M-19.24-7.845c-0.197-0.997-0.834-1.393-1.789-1.789c-0.934-0.393-3.176-0.858-4.842-0.871
			c-1.668,0.013-3.912,0.479-4.853,0.871c-0.949,0.396-1.583,0.792-1.778,1.789l-0.713,5.49v7.577h1.231v1.18
			c-0.001,1.452,2.113,1.452,2.113,0v-1.18h3.916h0.012h4.07v1.183c-0.002,1.451,2.117,1.451,2.117,0V5.223h1.229v-7.577
			L-19.24-7.845z M-28.898-9.117h2.955h3.1c0.59,0,0.59,0.892,0,0.895h-3.111h-2.943C-29.49-8.225-29.49-9.119-28.898-9.117z
			 M-30.932,2.848c-0.561,0-1.013-0.458-1.013-1.023c0-0.556,0.456-1.012,1.013-1.012c0.564,0,1.015,0.456,1.02,1.012
			C-29.915,2.394-30.367,2.848-30.932,2.848z M-25.944-1.778h-5.394c-0.526,0.003-0.64-0.377-0.584-0.755l0.555-3.992
			c0.077-0.479,0.238-0.798,0.876-0.804h4.538h4.705c0.633,0.006,0.795,0.326,0.877,0.806l0.557,3.994
			c0.047,0.375-0.064,0.755-0.592,0.752H-25.944z M-20.821,2.848c-0.555,0-1.012-0.458-1.012-1.023c0-0.556,0.457-1.012,1.012-1.012
			c0.564,0,1.023,0.456,1.023,1.012C-19.797,2.394-20.256,2.848-20.821,2.848z"/>
		<path fill="#84909D" d="M-25.944-10.506c0.025,0,0.051,0.001,0.072,0.001c0.027,0,0.053-0.001,0.078-0.001H-25.944z"/>
	</g>
</g>
<g>
	<path fill="#84909D" d="M-9.948-7.182c0.784,0.061,1.469-0.524,1.53-1.303c0.061-0.784-0.521-1.467-1.304-1.528
		s-1.469,0.52-1.531,1.303C-11.312-7.927-10.729-7.242-9.948-7.182z"/>
	<path fill="#84909D" d="M-11.154-6.6c0.284-0.192,0.627-0.325,0.999-0.295c0.488,0.042,0.891,0.342,1.13,0.711l1.437,2.841
		l1.956,1.347c0.169,0.128,0.268,0.338,0.253,0.562C-5.406-1.082-5.718-0.82-6.073-0.847C-6.177-0.853-6.261-0.895-6.364-0.94
		l-2.135-1.467c-0.065-0.057-0.117-0.119-0.158-0.193l-0.541-1.064l-0.641,2.834l2.522,2.98c0.056,0.093,0.094,0.196,0.118,0.304
		l0.678,3.595c-0.004,0.08,0.011,0.131,0.004,0.199c-0.041,0.528-0.505,0.924-1.035,0.881c-0.437-0.033-0.766-0.362-0.867-0.76
		l-0.643-3.371l-2.045-2.242l-0.479,2.186c-0.013,0.104-0.15,0.32-0.192,0.407l-1.961,3.311c-0.2,0.305-0.525,0.497-0.904,0.471
		c-0.529-0.042-0.927-0.507-0.884-1.037c0.012-0.15,0.076-0.305,0.128-0.412l1.83-3.066l1.519-6.751l-0.993,0.807l-0.525,2.404
		c-0.071,0.304-0.351,0.559-0.684,0.53c-0.351-0.029-0.616-0.332-0.59-0.69c0.004-0.027,0.006-0.057,0.014-0.084l0.628-2.803
		c0.033-0.126,0.102-0.233,0.194-0.311L-11.154-6.6z"/>
</g>
<g>
	<path fill="#0071BC" d="M-2.198,21.109"/>
</g>
<g>
	<path fill="#84909D" d="M6.441,1.075C6.097,1.073,5.814,0.793,5.814,0.451c0-0.349,0.284-0.628,0.627-0.625
		c0.352-0.003,0.627,0.275,0.626,0.625C7.068,0.793,6.793,1.073,6.441,1.075L6.441,1.075z"/>
	<path fill="#84909D" d="M8.107,1.075C8.449,1.073,8.73,0.793,8.73,0.451c0-0.349-0.281-0.628-0.623-0.625
		C7.76-0.177,7.479,0.103,7.481,0.451C7.479,0.793,7.76,1.073,8.107,1.075L8.107,1.075z"/>
	<path fill="#84909D" d="M10.587,13.697c0.865-0.143,1.726-1.049,1.726-2.15V3.49c0.002-1.137-0.956-2.182-2.253-2.181H7.283H4.488
		c-1.304,0-2.261,1.043-2.259,2.181v8.055c-0.002,1.104,0.862,2.008,1.727,2.15l-2.595,3.9h1.498l1.855-2.732h2.56h2.55l1.861,2.732
		h1.493L10.587,13.697z M5.806,2.142c0-0.202,0.172-0.368,0.372-0.371h1.096h1.094C8.567,1.774,8.74,1.94,8.74,2.142v0.632
		c0,0.202-0.163,0.372-0.372,0.372H7.274H6.178c-0.211,0-0.372-0.168-0.372-0.372V2.142L5.806,2.142z M4.434,12.523
		c-0.544-0.006-0.986-0.447-0.984-0.996c-0.001-0.545,0.44-0.988,0.984-0.986c0.549-0.002,0.996,0.441,0.996,0.986
		C5.429,12.076,4.983,12.518,4.434,12.523z M4.56,7.289C3.936,7.281,3.428,6.857,3.428,6.154V4.71
		C3.435,4.104,3.825,3.581,4.56,3.58h2.714h2.704c0.738,0.001,1.126,0.527,1.129,1.131v1.444c0.003,0.703-0.505,1.127-1.129,1.135
		H7.274H4.56z M9.091,11.527c0-0.543,0.443-0.988,0.989-0.986c0.547-0.002,0.991,0.443,0.992,0.986
		c-0.001,0.549-0.445,0.99-0.992,0.996C9.534,12.518,9.091,12.076,9.091,11.527z"/>
</g>
<g>
	<path fill="#84909D" d="M21.225,1.075C20.882,1.073,20.6,0.793,20.6,0.451c0-0.349,0.282-0.628,0.625-0.625
		c0.352-0.003,0.627,0.275,0.626,0.625C21.852,0.793,21.577,1.073,21.225,1.075L21.225,1.075z"/>
	<path fill="#84909D" d="M22.891,1.075c0.342-0.001,0.623-0.281,0.623-0.624c0-0.349-0.281-0.628-0.623-0.625
		c-0.348-0.003-0.628,0.276-0.626,0.625C22.263,0.793,22.544,1.073,22.891,1.075L22.891,1.075z"/>
	<path fill="#84909D" d="M25.371,13.697c0.865-0.143,1.726-1.049,1.726-2.15V3.49c0.002-1.137-0.956-2.182-2.253-2.181h-2.776H19.28
		c-1.304,0-2.262,1.043-2.259,2.181v8.055c-0.003,1.104,0.862,2.008,1.727,2.15l-2.595,3.9h1.498l1.854-2.732h2.552h2.55
		l1.861,2.732h1.493L25.371,13.697z M20.593,2.142c0-0.202,0.171-0.368,0.37-0.371h1.096h1.094c0.199,0.003,0.372,0.169,0.372,0.371
		v0.632c0,0.202-0.163,0.372-0.372,0.372h-1.094h-1.096c-0.21,0-0.37-0.168-0.37-0.372V2.142L20.593,2.142z M19.226,12.523
		c-0.544-0.006-0.985-0.447-0.984-0.996c-0.001-0.545,0.44-0.988,0.984-0.986c0.55-0.002,0.994,0.441,0.994,0.986
		C20.22,12.076,19.776,12.518,19.226,12.523z M19.352,7.289c-0.623-0.008-1.131-0.432-1.131-1.135V4.71
		c0.006-0.606,0.396-1.129,1.131-1.131h2.706h2.704c0.738,0.001,1.126,0.527,1.129,1.131v1.444c0.003,0.703-0.505,1.127-1.129,1.135
		h-2.704H19.352z M23.875,11.527c0-0.543,0.443-0.988,0.989-0.986c0.547-0.002,0.991,0.443,0.992,0.986
		c-0.001,0.549-0.445,0.99-0.992,0.996C24.318,12.518,23.875,12.076,23.875,11.527z"/>
</g>
</svg>
