<?xml version="1.0" encoding="utf-8"?>
<!-- Generator: Adobe Illustrator 16.0.4, SVG Export Plug-In . SVG Version: 6.00 Build 0)  -->
<!DOCTYPE svg PUBLIC "-//W3C//DTD SVG 1.1//EN" "http://www.w3.org/Graphics/SVG/1.1/DTD/svg11.dtd">
<svg version="1.1" id="Layer_1" xmlns="http://www.w3.org/2000/svg" xmlns:xlink="http://www.w3.org/1999/xlink" x="0px" y="0px"
	 width="19.143px" height="14.104px" viewBox="0 0 19.143 14.104" enable-background="new 0 0 19.143 14.104" xml:space="preserve">
<path id="path5421_2_" d="M12.594,0l-0.503,1.006l2.014,0.756V4.03H7.05V3.022h1.009V2.518c0-0.248-0.255-0.503-0.503-0.503H5.037
	c-0.504,0-0.504,0.503-0.504,0.503v0.504h1.512V4.03L4.973,6.17C4.671,6.098,4.353,6.044,4.03,6.044C1.804,6.044,0,7.849,0,10.074
	c0,2.227,1.804,4.03,4.03,4.03c2.223,0,4.028-1.804,4.028-4.03c0,0,1.008,0,1.511,0c0.504,0,0.504-0.503,0.504-0.503
	c0.104-1.482,0.869-2.644,1.856-3.4c0.688-0.523,1.426-0.846,2.175-1.008v0.629v0.41c-1.738,0.448-3.023,1.995-3.023,3.872
	c0,2.227,1.805,4.03,4.03,4.03c2.227,0,4.031-1.804,4.031-4.03c0-1.841-1.241-3.36-2.929-3.84L15.111,4.03V1.51
	c0-0.292-0.233-0.617-0.504-0.723L12.594,0z M7.05,5.038h4.535c-1.007,0.503-2.519,3.021-2.519,4.029H7.9
	C7.647,8.079,7.066,7.248,6.232,6.705L7.05,5.038z M4.03,7.555c1.392,0,2.519,1.128,2.519,2.519s-1.129,2.52-2.519,2.52
	c-1.391,0-2.521-1.129-2.521-2.52S2.64,7.555,4.03,7.555L4.03,7.555z M15.111,7.555c1.391,0,2.52,1.128,2.52,2.519
	s-1.129,2.52-2.52,2.52c-1.39,0-2.518-1.129-2.518-2.52S13.722,7.555,15.111,7.555L15.111,7.555z"/>
</svg>
