<?xml version="1.0" encoding="utf-8"?>
<!-- Generator: Adobe Illustrator 16.0.4, SVG Export Plug-In . SVG Version: 6.00 Build 0)  -->
<!DOCTYPE svg PUBLIC "-//W3C//DTD SVG 1.1//EN" "http://www.w3.org/Graphics/SVG/1.1/DTD/svg11.dtd">
<svg version="1.1" id="Layer_1" xmlns="http://www.w3.org/2000/svg" xmlns:xlink="http://www.w3.org/1999/xlink" x="0px" y="0px"
	 width="13.41px" height="16.438px" viewBox="0 0 13.41 16.438" enable-background="new 0 0 13.41 16.438" xml:space="preserve">
<g>
	<path d="M11.316,11.262"/>
	<path d="M2.086,11.262"/>
	<g>
		<path d="M12.758,2.43c-0.179-0.908-0.761-1.271-1.632-1.633C10.273,0.44,8.223,0.014,6.703,0C5.186,0.014,3.136,0.44,2.275,0.797
			C1.409,1.159,0.83,1.522,0.651,2.43L0,7.446v6.918h1.125v1.079c-0.004,1.326,1.929,1.326,1.929,0v-1.079h3.573h0.01h3.718v1.079
			c-0.002,1.326,1.935,1.326,1.933,0v-1.079h1.123V7.446L12.758,2.43z M3.943,1.268h2.693h2.831c0.538,0,0.538,0.814,0,0.818H6.627
			H3.943C3.401,2.083,3.401,1.268,3.943,1.268z M2.086,12.196c-0.512,0-0.926-0.417-0.926-0.934c0-0.51,0.414-0.926,0.926-0.926
			c0.515,0,0.928,0.416,0.932,0.926C3.014,11.779,2.601,12.196,2.086,12.196z M6.637,7.971H1.715
			C1.233,7.975,1.131,7.627,1.181,7.282l0.506-3.645c0.071-0.439,0.22-0.73,0.8-0.735h4.141h4.301
			c0.575,0.005,0.724,0.296,0.799,0.735l0.508,3.645c0.043,0.346-0.059,0.693-0.539,0.689H6.637z M11.316,12.196
			c-0.509,0-0.926-0.417-0.926-0.934c0-0.51,0.417-0.926,0.926-0.926c0.516,0,0.934,0.416,0.934,0.926
			C12.25,11.779,11.832,12.196,11.316,12.196z"/>
		<path d="M6.637,0C6.66,0,6.684,0,6.703,0c0.025,0,0.048,0,0.069,0H6.637z"/>
	</g>
</g>
</svg>
