<?xml version="1.0" encoding="utf-8"?>
<!-- Generator: Adobe Illustrator 16.0.4, SVG Export Plug-In . SVG Version: 6.00 Build 0)  -->
<!DOCTYPE svg PUBLIC "-//W3C//DTD SVG 1.1//EN" "http://www.w3.org/Graphics/SVG/1.1/DTD/svg11.dtd">
<svg version="1.1" id="Layer_1" xmlns="http://www.w3.org/2000/svg" xmlns:xlink="http://www.w3.org/1999/xlink" x="0px" y="0px"
	 width="14px" height="13.39px" viewBox="0 0 14 13.39" enable-background="new 0 0 14 13.39" xml:space="preserve">
<g>
	<path d="M0,12.17c0,0.674,0.546,1.22,1.22,1.22H12.78c0.674,0,1.22-0.546,1.22-1.22V2.413H0V12.17z M10.354,3.633h2.438v2.439
		h-2.438V3.633z M10.354,6.694h2.438v2.439h-2.438V6.694z M10.354,9.756h2.438v2.439h-2.438V9.756z M7.305,3.633h2.439v2.439H7.305
		V3.633z M7.305,6.694h2.439v2.439H7.305V6.694z M7.305,9.756h2.439v2.439H7.305V9.756z M4.256,3.633h2.439v2.439H4.256V3.633z
		 M4.256,6.694h2.439v2.439H4.256V6.694z M4.256,9.756h2.439v2.439H4.256V9.756z M1.207,3.633h2.438v2.439H1.207V3.633z
		 M1.207,6.694h2.438v2.439H1.207V6.694z M1.207,9.756h2.438v2.439H1.207V9.756z"/>
	<path d="M12.78,0H1.22C0.546,0,0,0.546,0,1.22v0.584h14V1.22C14,0.546,13.454,0,12.78,0z"/>
</g>
</svg>
