<?xml version="1.0" encoding="utf-8"?>
<!-- Generator: Adobe Illustrator 16.0.4, SVG Export Plug-In . SVG Version: 6.00 Build 0)  -->
<!DOCTYPE svg PUBLIC "-//W3C//DTD SVG 1.1//EN" "http://www.w3.org/Graphics/SVG/1.1/DTD/svg11.dtd">
<svg version="1.1" id="Layer_1" xmlns="http://www.w3.org/2000/svg" xmlns:xlink="http://www.w3.org/1999/xlink" x="0px" y="0px"
	 width="29px" height="249.432px" viewBox="0 0 29 249.432" enable-background="new 0 0 29 249.432" xml:space="preserve">
<g>
	<rect x="13" y="10" fill="#84909D" width="3" height="231"/>
</g>
<g>
	<circle fill="#5AE3F9" cx="15" cy="47.127" r="13.499"/>
</g>
<g>
	<rect y="110" fill="#F7931E" width="29" height="29"/>
</g>
<g>
	<g>
		<path fill="#FFFFFF" d="M15.113,41.311c0.795,0.062,1.488-0.531,1.551-1.321c0.061-0.793-0.527-1.486-1.322-1.548
			c-0.793-0.062-1.488,0.527-1.551,1.321C13.732,40.556,14.322,41.25,15.113,41.311z"/>
	</g>
	<g>
		<path fill="#FFFFFF" d="M13.893,41.9c0.287-0.195,0.633-0.328,1.012-0.299c0.496,0.043,0.904,0.347,1.146,0.721l1.455,2.879
			l1.98,1.365c0.172,0.129,0.273,0.342,0.26,0.57c-0.029,0.356-0.346,0.623-0.703,0.595c-0.105-0.005-0.191-0.048-0.297-0.095
			l-2.164-1.487c-0.064-0.058-0.117-0.12-0.158-0.195l-0.549-1.079l-0.65,2.874l2.557,3.019c0.057,0.096,0.096,0.199,0.119,0.309
			l0.688,3.645c-0.002,0.08,0.012,0.133,0.006,0.2c-0.043,0.536-0.514,0.937-1.051,0.894c-0.441-0.032-0.775-0.366-0.879-0.77
			l-0.652-3.418l-2.072-2.271l-0.486,2.215c-0.012,0.105-0.15,0.323-0.193,0.413l-1.986,3.355c-0.205,0.309-0.535,0.504-0.916,0.477
			c-0.539-0.044-0.941-0.515-0.896-1.052c0.012-0.151,0.074-0.309,0.129-0.418l1.855-3.107l1.539-6.842l-1.008,0.817l-0.531,2.437
			c-0.072,0.309-0.355,0.566-0.695,0.537c-0.355-0.029-0.623-0.338-0.598-0.699c0.004-0.027,0.008-0.058,0.014-0.085l0.639-2.843
			c0.031-0.127,0.102-0.232,0.197-0.312L13.893,41.9z"/>
	</g>
</g>
<g>
	<circle fill="#FFFFFF" cx="14.724" cy="10.431" r="10"/>
	<path d="M14.726,21.432c-6.066,0-11.002-4.935-11.002-11.001c0-6.064,4.936-10.999,11.002-10.999
		c6.064,0,10.998,4.934,10.998,10.999C25.724,16.497,20.79,21.432,14.726,21.432z M14.726,1.432c-4.964,0-9.002,4.037-9.002,8.999
		c0,4.963,4.038,9.001,9.002,9.001c4.961,0,8.998-4.038,8.998-9.001C23.724,5.469,19.687,1.432,14.726,1.432z"/>
</g>
<g>
	<g>
		<path d="M21.125,10.296l-1.547-1.547V6.629c0-0.136-0.111-0.246-0.246-0.246h-1.047c-0.137,0-0.246,0.11-0.246,0.246v0.579
			l-3.262-3.262c-0.055-0.052-0.129-0.079-0.203-0.07c-0.055,0.006-0.107,0.031-0.146,0.07l-6.348,6.35
			c-0.098,0.098-0.098,0.253,0.002,0.349c0.045,0.046,0.107,0.072,0.172,0.072h1.342v4.515c0,0.136,0.109,0.246,0.246,0.247h1.67
			h2.297h1.588h2.355h1.611c0.137,0,0.246-0.11,0.246-0.247v-4.515h1.342c0.137-0.001,0.246-0.111,0.246-0.249
			C21.197,10.403,21.172,10.341,21.125,10.296z"/>
	</g>
</g>
<g>
	<circle cx="14.724" cy="86.688" r="6.921"/>
	<path fill="#F2F4F5" d="M14.725,94.609c-4.368,0-7.922-3.554-7.922-7.922c0-4.368,3.554-7.921,7.922-7.921
		c4.367,0,7.92,3.553,7.92,7.921C22.645,91.056,19.092,94.609,14.725,94.609z M14.725,80.767c-3.265,0-5.922,2.656-5.922,5.921
		c0,3.265,2.657,5.922,5.922,5.922c3.264,0,5.92-2.657,5.92-5.922C20.645,83.423,17.989,80.767,14.725,80.767z"/>
</g>
<g>
	<circle cx="14.724" cy="163.688" r="6.921"/>
	<path fill="#F2F4F5" d="M14.725,171.608c-4.368,0-7.922-3.553-7.922-7.921c0-4.367,3.554-7.92,7.922-7.92
		c4.367,0,7.92,3.553,7.92,7.92C22.645,168.055,19.092,171.608,14.725,171.608z M14.725,157.768c-3.265,0-5.922,2.656-5.922,5.92
		c0,3.265,2.657,5.921,5.922,5.921c3.264,0,5.92-2.656,5.92-5.921C20.645,160.423,17.989,157.768,14.725,157.768z"/>
</g>
<g>
	<circle fill="#FFFFFF" cx="14.724" cy="238.431" r="10"/>
	<path d="M14.726,249.432c-6.066,0-11.002-4.935-11.002-11.001c0-6.065,4.936-10.999,11.002-10.999
		c6.064,0,10.998,4.934,10.998,10.999C25.724,244.497,20.79,249.432,14.726,249.432z M14.726,229.432
		c-4.964,0-9.002,4.037-9.002,8.999c0,4.963,4.038,9.001,9.002,9.001c4.961,0,8.998-4.038,8.998-9.001
		C23.724,233.469,19.687,229.432,14.726,229.432z"/>
</g>
<g>
	<g>
		<path d="M19.918,235.304h-2.555v-1.074c0-0.424-0.342-0.77-0.766-0.77h-3.994c-0.422,0-0.768,0.346-0.768,0.77v1.074H9.283
			c-0.422,0-0.768,0.344-0.768,0.766v5.989c0,0.422,0.346,0.767,0.768,0.767h10.635c0.426,0,0.77-0.345,0.77-0.767v-5.989
			C20.688,235.647,20.344,235.304,19.918,235.304z M12.695,234.819c0-0.313,0.104-0.57,0.418-0.57h2.973
			c0.314,0,0.42,0.257,0.42,0.57v0.484h-3.811V234.819z"/>
	</g>
</g>
<g>
	<circle fill="#5AE3F9" cx="14.603" cy="202.127" r="13.499"/>
</g>
<g>
	<g>
		<path fill="#FFFFFF" d="M15.113,196.311c0.795,0.062,1.488-0.531,1.551-1.32c0.061-0.794-0.527-1.486-1.322-1.549
			c-0.793-0.062-1.488,0.527-1.551,1.32C13.732,195.556,14.322,196.25,15.113,196.311z"/>
	</g>
	<g>
		<path fill="#FFFFFF" d="M13.893,196.9c0.287-0.195,0.633-0.328,1.012-0.299c0.496,0.043,0.904,0.347,1.146,0.721l1.455,2.879
			l1.98,1.365c0.172,0.129,0.273,0.342,0.26,0.57c-0.029,0.356-0.346,0.623-0.703,0.595c-0.105-0.005-0.191-0.048-0.297-0.095
			l-2.164-1.487c-0.064-0.058-0.117-0.12-0.158-0.195l-0.549-1.079l-0.65,2.874l2.557,3.019c0.057,0.096,0.096,0.199,0.119,0.309
			l0.688,3.645c-0.002,0.08,0.012,0.133,0.006,0.2c-0.043,0.536-0.514,0.937-1.051,0.894c-0.441-0.032-0.775-0.366-0.879-0.77
			l-0.652-3.418l-2.072-2.271l-0.486,2.215c-0.012,0.105-0.15,0.323-0.193,0.413l-1.986,3.355c-0.205,0.309-0.535,0.504-0.916,0.477
			c-0.539-0.044-0.941-0.515-0.896-1.052c0.012-0.151,0.074-0.309,0.129-0.418l1.855-3.107l1.539-6.842l-1.008,0.817l-0.531,2.437
			c-0.072,0.309-0.355,0.566-0.695,0.537c-0.355-0.029-0.623-0.338-0.598-0.699c0.004-0.027,0.008-0.058,0.014-0.085l0.639-2.843
			c0.031-0.127,0.102-0.232,0.197-0.312L13.893,196.9z"/>
	</g>
</g>
<g>
	<g>
		<path fill="#FFFFFF" d="M13.699,115.841c-0.39-0.002-0.709-0.319-0.709-0.709c0-0.396,0.319-0.713,0.709-0.709
			c0.396-0.004,0.711,0.313,0.71,0.709C14.41,115.521,14.095,115.839,13.699,115.841L13.699,115.841z"/>
	</g>
	<g>
		<path fill="#FFFFFF" d="M15.59,115.841c0.389-0.002,0.709-0.319,0.709-0.709c0-0.396-0.32-0.713-0.709-0.709
			c-0.396-0.004-0.713,0.313-0.711,0.709C14.877,115.521,15.194,115.839,15.59,115.841L15.59,115.841z"/>
	</g>
	<g>
		<path fill="#FFFFFF" d="M18.405,130.175c0.983-0.162,1.959-1.19,1.959-2.442v-9.149c0.002-1.292-1.086-2.478-2.559-2.476h-3.152
			h-3.162c-1.481-0.002-2.568,1.184-2.565,2.476v9.149c-0.003,1.252,0.979,2.28,1.96,2.442l-2.946,4.427h1.701l2.107-3.101h2.896
			h2.896l2.114,3.101h1.694L18.405,130.175z M12.981,117.053c0-0.229,0.195-0.418,0.421-0.422h1.241h1.243
			c0.226,0.004,0.421,0.193,0.421,0.422v0.718c0,0.229-0.185,0.422-0.421,0.421h-1.242h-1.242c-0.238,0.001-0.421-0.191-0.421-0.421
			V117.053L12.981,117.053z M11.429,128.841c-0.617-0.006-1.119-0.507-1.117-1.129c-0.002-0.621,0.5-1.122,1.117-1.12
			c0.624-0.004,1.129,0.499,1.129,1.12C12.558,128.334,12.053,128.835,11.429,128.841z M11.573,122.896
			c-0.708-0.006-1.285-0.49-1.285-1.286v-1.642c0.008-0.686,0.45-1.283,1.285-1.283h3.071h3.07c0.838,0,1.279,0.598,1.283,1.283
			v1.642c0.001,0.796-0.574,1.281-1.283,1.286h-3.07H11.573z M16.707,127.712c-0.001-0.62,0.503-1.122,1.122-1.12
			c0.622-0.002,1.125,0.5,1.127,1.12c-0.002,0.622-0.505,1.123-1.127,1.129C17.21,128.835,16.706,128.334,16.707,127.712z"/>
	</g>
</g>
</svg>
