<?xml version="1.0" encoding="utf-8"?>
<!-- Generator: Adobe Illustrator 16.0.4, SVG Export Plug-In . SVG Version: 6.00 Build 0)  -->
<!DOCTYPE svg PUBLIC "-//W3C//DTD SVG 1.1//EN" "http://www.w3.org/Graphics/SVG/1.1/DTD/svg11.dtd">
<svg version="1.1" id="Layer_1" xmlns="http://www.w3.org/2000/svg" xmlns:xlink="http://www.w3.org/1999/xlink" x="0px" y="0px"
	 width="22px" height="22px" viewBox="0 0 22 22" enable-background="new 0 0 22 22" xml:space="preserve">
<g>
	<circle fill="#FFFFFF" cx="11" cy="10.999" r="10"/>
	<path d="M11.002,22C4.936,22,0,17.064,0,10.999C0,4.934,4.936,0,11.002,0C17.066,0,22,4.934,22,10.999
		C22,17.064,17.066,22,11.002,22z M11.002,2C6.038,2,2,6.037,2,10.999C2,15.962,6.038,20,11.002,20C15.963,20,20,15.962,20,10.999
		C20,6.037,15.963,2,11.002,2z"/>
</g>
<g>
	<g>
		<path d="M17.401,10.864l-1.547-1.547V7.197c0-0.136-0.111-0.246-0.246-0.246h-1.047c-0.137,0-0.246,0.11-0.246,0.246v0.579
			l-3.262-3.262c-0.055-0.052-0.129-0.079-0.203-0.07c-0.055,0.006-0.107,0.031-0.146,0.07l-6.348,6.35
			c-0.098,0.098-0.098,0.253,0.002,0.349c0.045,0.046,0.107,0.072,0.172,0.072h1.342v4.515c0,0.136,0.109,0.246,0.246,0.247h1.67
			h2.297h1.588h2.355h1.611c0.137-0.001,0.246-0.111,0.246-0.247v-4.515h1.342c0.137-0.001,0.246-0.111,0.246-0.249
			C17.474,10.971,17.448,10.909,17.401,10.864z"/>
	</g>
</g>
</svg>
