<?xml version="1.0" encoding="utf-8"?>
<!-- Generator: Adobe Illustrator 16.0.4, SVG Export Plug-In . SVG Version: 6.00 Build 0)  -->
<!DOCTYPE svg PUBLIC "-//W3C//DTD SVG 1.1//EN" "http://www.w3.org/Graphics/SVG/1.1/DTD/svg11.dtd">
<svg version="1.1" id="Layer_1" xmlns="http://www.w3.org/2000/svg" xmlns:xlink="http://www.w3.org/1999/xlink" x="0px" y="0px"
	 width="18.48px" height="16.259px" viewBox="0 0 18.48 16.259" enable-background="new 0 0 18.48 16.259" xml:space="preserve">
<g>
	<path d="M18.381,8.999L16.213,6.83V3.86c0-0.189-0.157-0.343-0.346-0.345h-1.468c-0.189,0.001-0.346,0.155-0.346,0.345v0.812
		L9.485,0.102C9.409,0.028,9.306-0.01,9.2,0.002c-0.076,0.009-0.151,0.044-0.205,0.1L0.101,8.999
		c-0.134,0.135-0.134,0.354,0.002,0.488c0.064,0.064,0.151,0.1,0.243,0.1h1.88v6.328c0,0.189,0.152,0.344,0.344,0.345h2.34h3.22
		h2.225h3.301h2.257c0.19-0.001,0.345-0.155,0.345-0.345V9.586h1.88c0.189,0,0.345-0.154,0.345-0.346
		C18.479,9.149,18.444,9.062,18.381,8.999z"/>
</g>
</svg>
