<?xml version="1.0" encoding="utf-8"?>
<!-- Generator: Adobe Illustrator 16.0.4, SVG Export Plug-In . SVG Version: 6.00 Build 0)  -->
<!DOCTYPE svg PUBLIC "-//W3C//DTD SVG 1.1//EN" "http://www.w3.org/Graphics/SVG/1.1/DTD/svg11.dtd">
<svg version="1.1" id="Layer_1" xmlns="http://www.w3.org/2000/svg" xmlns:xlink="http://www.w3.org/1999/xlink" x="0px" y="0px"
	 width="29px" height="29px" viewBox="0 0 29 29" enable-background="new 0 0 29 29" xml:space="preserve">
<rect fill="#F7931E" width="29" height="29"/>
<g>
	<path fill="#FFFFFF" d="M13.699,5.841c-0.39-0.002-0.709-0.319-0.709-0.709c0-0.396,0.319-0.713,0.709-0.709
		c0.396-0.004,0.711,0.313,0.71,0.709C14.41,5.521,14.095,5.839,13.699,5.841L13.699,5.841z"/>
	<path fill="#FFFFFF" d="M15.59,5.841c0.389-0.002,0.709-0.319,0.709-0.709c0-0.396-0.32-0.713-0.709-0.709
		c-0.396-0.004-0.713,0.313-0.711,0.709C14.877,5.521,15.194,5.839,15.59,5.841L15.59,5.841z"/>
	<path fill="#FFFFFF" d="M18.405,20.175c0.983-0.162,1.959-1.19,1.959-2.442V8.583c0.002-1.292-1.086-2.478-2.559-2.476h-3.152
		h-3.162C10.01,6.105,8.923,7.291,8.926,8.583v9.149c-0.003,1.252,0.979,2.28,1.96,2.442l-2.946,4.427h1.701l2.107-3.101h2.896
		h2.896l2.114,3.101h1.694L18.405,20.175z M12.981,7.053c0-0.229,0.195-0.418,0.421-0.422h1.241h1.243
		c0.226,0.004,0.421,0.193,0.421,0.422v0.718c0,0.229-0.185,0.422-0.421,0.421h-1.242h-1.242C13.164,8.192,12.981,8,12.981,7.771
		V7.053L12.981,7.053z M11.429,18.841c-0.617-0.006-1.119-0.507-1.117-1.129c-0.002-0.621,0.5-1.122,1.117-1.12
		c0.624-0.004,1.129,0.499,1.129,1.12C12.558,18.334,12.053,18.835,11.429,18.841z M11.573,12.896
		c-0.708-0.006-1.285-0.49-1.285-1.286V9.969c0.008-0.686,0.45-1.283,1.285-1.283h3.071h3.07c0.838,0,1.279,0.598,1.283,1.283v1.642
		c0.001,0.796-0.574,1.281-1.283,1.286h-3.07H11.573z M16.707,17.712c-0.001-0.62,0.503-1.122,1.122-1.12
		c0.622-0.002,1.125,0.5,1.127,1.12c-0.002,0.622-0.505,1.123-1.127,1.129C17.21,18.835,16.706,18.334,16.707,17.712z"/>
</g>
</svg>
