<?xml version="1.0" encoding="utf-8"?>
<!-- Generator: Adobe Illustrator 16.0.4, SVG Export Plug-In . SVG Version: 6.00 Build 0)  -->
<!DOCTYPE svg PUBLIC "-//W3C//DTD SVG 1.1//EN" "http://www.w3.org/Graphics/SVG/1.1/DTD/svg11.dtd">
<svg version="1.1" id="Layer_1" xmlns="http://www.w3.org/2000/svg" xmlns:xlink="http://www.w3.org/1999/xlink" x="0px" y="0px"
	 width="9.959px" height="5.69px" viewBox="0 0 9.959 5.69" enable-background="new 0 0 9.959 5.69" xml:space="preserve">
<g id="g3458">
	<g id="path3460_1_">
		<path fill="#3D3D3B" d="M4.98,5.69c-0.256,0-0.512-0.098-0.707-0.293c-0.391-0.391-0.391-1.023,0-1.414l3.979-3.979
			c0.391-0.391,1.023-0.391,1.414,0s0.391,1.023,0,1.414L5.688,5.397C5.492,5.593,5.236,5.69,4.98,5.69z"/>
	</g>
	<g id="path3462_1_">
		<path fill="#3D3D3B" d="M4.98,5.69c-0.256,0-0.512-0.098-0.707-0.292l-3.98-3.979c-0.391-0.391-0.391-1.024,0-1.415
			c0.391-0.391,1.024-0.39,1.415,0l3.98,3.979c0.391,0.391,0.391,1.024,0,1.415C5.493,5.593,5.236,5.69,4.98,5.69z"/>
	</g>
</g>
</svg>
