<?xml version="1.0" encoding="utf-8"?>
<!-- Generator: Adobe Illustrator 15.1.0, SVG Export Plug-In . SVG Version: 6.00 Build 0)  -->
<!DOCTYPE svg PUBLIC "-//W3C//DTD SVG 1.1//EN" "http://www.w3.org/Graphics/SVG/1.1/DTD/svg11.dtd">
<svg version="1.1" id="Layer_1" xmlns="http://www.w3.org/2000/svg" xmlns:xlink="http://www.w3.org/1999/xlink" x="0px" y="0px"
	 width="100px" height="86.112px" viewBox="0 0 100 86.112" enable-background="new 0 0 100 86.112" xml:space="preserve">
<path d="M94.444,44.446H5.556H0v6.943h5.556v34.723h88.888V51.389H100v-6.943H94.444z M58.171,77.924L50,71.989l-8.17,5.936
	l3.121-9.605l-8.171-5.935h10.099L50,52.779l3.121,9.605H63.22l-8.17,5.935L58.171,77.924z"/>
<circle cx="50" cy="8.333" r="8.333"/>
<path d="M61.11,19.445H38.889c-6.945,0-9.723,5.555-9.723,9.722v9.723v2.777h6.944V38.89v-8.333h2.778v8.333v2.777H61.11V38.89
	v-8.333h2.779v8.333v2.777h6.943V38.89v-9.723C70.833,25,68.056,19.445,61.11,19.445z"/>
</svg>
