<?xml version="1.0" encoding="utf-8"?>
<!-- Generator: Adobe Illustrator 16.0.4, SVG Export Plug-In . SVG Version: 6.00 Build 0)  -->
<!DOCTYPE svg PUBLIC "-//W3C//DTD SVG 1.1//EN" "http://www.w3.org/Graphics/SVG/1.1/DTD/svg11.dtd">
<svg version="1.1" id="Layer_1" xmlns="http://www.w3.org/2000/svg" xmlns:xlink="http://www.w3.org/1999/xlink" x="0px" y="0px"
	 width="11.429px" height="19.312px" viewBox="0 0 11.429 19.312" enable-background="new 0 0 11.429 19.312" xml:space="preserve">
<g>
	<path fill="#FFFFFF" d="M6.281,3.193c0.883,0.068,1.654-0.591,1.724-1.468c0.067-0.882-0.587-1.651-1.469-1.721
		C5.654-0.063,4.881,0.591,4.812,1.473C4.746,2.354,5.402,3.125,6.281,3.193z"/>
	<path fill="#FFFFFF" d="M4.924,3.849c0.319-0.217,0.705-0.365,1.125-0.332C6.6,3.564,7.053,3.901,7.322,4.317l1.617,3.199
		l2.201,1.516c0.191,0.145,0.303,0.381,0.287,0.635c-0.031,0.396-0.383,0.691-0.781,0.66c-0.117-0.006-0.212-0.054-0.328-0.105
		L7.914,8.569C7.841,8.506,7.783,8.437,7.736,8.353L7.127,7.154l-0.723,3.192l2.842,3.354c0.062,0.105,0.105,0.222,0.133,0.343
		l0.764,4.05c-0.004,0.089,0.012,0.147,0.005,0.222c-0.046,0.597-0.569,1.041-1.167,0.993c-0.49-0.036-0.861-0.407-0.976-0.855
		l-0.726-3.797l-2.303-2.524l-0.539,2.461c-0.015,0.117-0.169,0.359-0.217,0.459L2.014,18.78c-0.227,0.343-0.593,0.56-1.018,0.529
		C0.398,19.261-0.049,18.738,0,18.142c0.014-0.169,0.084-0.344,0.145-0.465l2.061-3.453l1.71-7.603L2.796,7.53l-0.591,2.707
		c-0.08,0.343-0.395,0.629-0.771,0.597c-0.395-0.032-0.693-0.375-0.664-0.777c0.005-0.03,0.008-0.063,0.016-0.094l0.709-3.158
		c0.035-0.142,0.113-0.259,0.219-0.348L4.924,3.849z"/>
</g>
</svg>
