<?xml version="1.0" encoding="utf-8"?>
<!-- Generator: Adobe Illustrator 16.0.4, SVG Export Plug-In . SVG Version: 6.00 Build 0)  -->
<!DOCTYPE svg PUBLIC "-//W3C//DTD SVG 1.1//EN" "http://www.w3.org/Graphics/SVG/1.1/DTD/svg11.dtd">
<svg version="1.1" id="Layer_1" xmlns="http://www.w3.org/2000/svg" xmlns:xlink="http://www.w3.org/1999/xlink" x="0px" y="0px"
	 width="10.34px" height="17.468px" viewBox="0 0 10.34 17.468" enable-background="new 0 0 10.34 17.468" xml:space="preserve">
<g>
	<path d="M5.685,2.889C6.483,2.95,7.181,2.354,7.244,1.561c0.061-0.797-0.53-1.494-1.328-1.557S4.418,0.535,4.355,1.332
		C4.295,2.129,4.889,2.826,5.685,2.889z"/>
	<path d="M4.457,3.481c0.289-0.196,0.639-0.33,1.018-0.3c0.498,0.043,0.908,0.348,1.152,0.724l1.463,2.894l1.99,1.371
		c0.173,0.13,0.273,0.345,0.261,0.574c-0.029,0.357-0.347,0.625-0.707,0.597C9.527,9.336,9.442,9.293,9.336,9.246L7.162,7.752
		c-0.066-0.059-0.118-0.121-0.16-0.197L6.45,6.471L5.796,9.359l2.57,3.033c0.057,0.096,0.096,0.201,0.12,0.311l0.69,3.662
		c-0.004,0.081,0.012,0.135,0.004,0.201c-0.041,0.539-0.515,0.941-1.055,0.898c-0.444-0.033-0.779-0.369-0.883-0.773l-0.656-3.435
		l-2.082-2.284l-0.488,2.227c-0.014,0.105-0.152,0.325-0.196,0.416l-1.996,3.371c-0.205,0.311-0.536,0.506-0.921,0.479
		c-0.54-0.043-0.944-0.516-0.9-1.057c0.012-0.152,0.076-0.31,0.131-0.42l1.863-3.123l1.547-6.877L2.533,6.811L1.998,9.26
		C1.926,9.569,1.641,9.828,1.3,9.799C0.943,9.771,0.673,9.461,0.7,9.096c0.004-0.027,0.007-0.057,0.013-0.084l0.643-2.857
		C1.387,6.026,1.458,5.92,1.552,5.84L4.457,3.481z"/>
</g>
</svg>
