<?xml version="1.0" encoding="utf-8"?>
<!-- Generator: Adobe Illustrator 16.0.4, SVG Export Plug-In . SVG Version: 6.00 Build 0)  -->
<!DOCTYPE svg PUBLIC "-//W3C//DTD SVG 1.1//EN" "http://www.w3.org/Graphics/SVG/1.1/DTD/svg11.dtd">
<svg version="1.1" id="Layer_1" xmlns="http://www.w3.org/2000/svg" xmlns:xlink="http://www.w3.org/1999/xlink" x="0px" y="0px"
	 width="26.998px" height="26.999px" viewBox="0 0 26.998 26.999" enable-background="new 0 0 26.998 26.999" xml:space="preserve">
<circle fill="#5AE3F9" cx="13.499" cy="13.499" r="13.499"/>
<g>
	<g>
		<path fill="#FFFFFF" d="M13.612,7.682c0.795,0.062,1.488-0.531,1.551-1.321c0.061-0.793-0.527-1.486-1.322-1.548
			c-0.793-0.062-1.488,0.527-1.551,1.321C12.231,6.927,12.821,7.622,13.612,7.682z"/>
		<path fill="#FFFFFF" d="M12.392,8.272c0.287-0.195,0.633-0.328,1.012-0.299c0.496,0.043,0.904,0.347,1.146,0.721l1.455,2.879
			l1.98,1.365c0.172,0.129,0.273,0.342,0.26,0.57c-0.029,0.356-0.346,0.623-0.703,0.595c-0.105-0.005-0.191-0.048-0.297-0.095
			l-2.164-1.487c-0.064-0.058-0.117-0.12-0.158-0.195l-0.549-1.079l-0.65,2.874l2.557,3.019c0.057,0.096,0.096,0.199,0.119,0.309
			l0.688,3.645c-0.002,0.08,0.012,0.133,0.006,0.2c-0.043,0.536-0.514,0.937-1.051,0.894c-0.441-0.032-0.775-0.366-0.879-0.77
			l-0.652-3.418l-2.072-2.271l-0.486,2.215c-0.012,0.105-0.15,0.323-0.193,0.413L9.772,21.71c-0.205,0.309-0.535,0.504-0.916,0.477
			c-0.539-0.044-0.941-0.515-0.896-1.052c0.012-0.151,0.074-0.309,0.129-0.418l1.855-3.107l1.539-6.842l-1.008,0.817l-0.531,2.437
			c-0.072,0.309-0.355,0.566-0.695,0.537c-0.355-0.029-0.623-0.338-0.598-0.699c0.004-0.027,0.008-0.058,0.014-0.085l0.639-2.843
			c0.031-0.127,0.102-0.232,0.197-0.312L12.392,8.272z"/>
	</g>
</g>
</svg>
