<?xml version="1.0" encoding="utf-8"?>
<!-- Generator: Adobe Illustrator 16.0.4, SVG Export Plug-In . SVG Version: 6.00 Build 0)  -->
<!DOCTYPE svg PUBLIC "-//W3C//DTD SVG 1.1//EN" "http://www.w3.org/Graphics/SVG/1.1/DTD/svg11.dtd">
<svg version="1.1" id="Layer_1" xmlns="http://www.w3.org/2000/svg" xmlns:xlink="http://www.w3.org/1999/xlink" x="0px" y="0px"
	 width="21.724px" height="22px" viewBox="0 0 21.724 22" enable-background="new 0 0 21.724 22" xml:space="preserve">
<g>
	<circle fill="#FFFFFF" cx="10.724" cy="10.999" r="10"/>
	<path d="M10.726,22C4.659,22-0.276,17.065-0.276,10.999C-0.276,4.934,4.659,0,10.726,0c6.064,0,10.998,4.934,10.998,10.999
		C21.724,17.065,16.79,22,10.726,22z M10.726,2c-4.964,0-9.002,4.037-9.002,8.999c0,4.963,4.038,9.001,9.002,9.001
		c4.962,0,8.998-4.038,8.998-9.001C19.724,6.037,15.688,2,10.726,2z"/>
</g>
<g>
	<g>
		<path d="M15.918,7.872h-2.555V6.798c0-0.424-0.342-0.77-0.766-0.77H8.604c-0.422,0-0.768,0.346-0.768,0.77v1.074H5.283
			c-0.422,0-0.768,0.344-0.768,0.766v5.989c0,0.422,0.346,0.767,0.768,0.767h10.635c0.426,0,0.77-0.345,0.77-0.767V8.638
			C16.688,8.216,16.344,7.872,15.918,7.872z M8.695,7.388c0-0.313,0.104-0.57,0.418-0.57h2.973c0.314,0,0.42,0.257,0.42,0.57v0.484
			H8.695V7.388z"/>
	</g>
</g>
</svg>
