<?xml version="1.0" encoding="utf-8"?>
<!-- Generator: Adobe Illustrator 16.0.4, SVG Export Plug-In . SVG Version: 6.00 Build 0)  -->
<!DOCTYPE svg PUBLIC "-//W3C//DTD SVG 1.1//EN" "http://www.w3.org/Graphics/SVG/1.1/DTD/svg11.dtd">
<svg version="1.1" id="Layer_1" xmlns="http://www.w3.org/2000/svg" xmlns:xlink="http://www.w3.org/1999/xlink" x="0px" y="0px"
	 width="18.48px" height="14.422px" viewBox="0 0 18.48 14.422" enable-background="new 0 0 18.48 14.422" xml:space="preserve">
<g>
	<g>
		<path d="M17.431,2.837h-3.935V1.184C13.496,0.532,12.967,0,12.314,0h-6.15c-0.65,0-1.182,0.531-1.182,1.184v1.653H1.05
			c-0.651,0-1.183,0.53-1.183,1.181v9.223c0,0.65,0.531,1.182,1.183,1.182h16.381c0.653,0,1.183-0.531,1.183-1.182V4.018
			C18.613,3.368,18.084,2.837,17.431,2.837z M6.306,2.092c0-0.483,0.158-0.877,0.644-0.877h4.578c0.485,0,0.645,0.394,0.645,0.877
			v0.745H6.306V2.092z"/>
	</g>
</g>
</svg>
