<?xml version="1.0" encoding="utf-8"?>
<!-- Generator: Adobe Illustrator 16.0.4, SVG Export Plug-In . SVG Version: 6.00 Build 0)  -->
<!DOCTYPE svg PUBLIC "-//W3C//DTD SVG 1.1//EN" "http://www.w3.org/Graphics/SVG/1.1/DTD/svg11.dtd">
<svg version="1.1" id="Layer_1" xmlns="http://www.w3.org/2000/svg" xmlns:xlink="http://www.w3.org/1999/xlink" x="0px" y="0px"
	 width="100px" height="100px" viewBox="0 0 100 100" enable-background="new 0 0 100 100" xml:space="preserve">
<g>
	<g>
		<path d="M49.984,97.282l0.036-0.056l0,0C50.01,97.242,49.984,97.282,49.984,97.282z"/>
	</g>
	<g>
		<path fill="#F5A81C" d="M49.984,97.282l0.036-0.056l0,0C50.01,97.242,49.984,97.282,49.984,97.282z"/>
		<path fill="#F5A81C" d="M80.243,33.971c0-16.706-13.525-30.255-30.228-30.255c-16.709,0-30.259,13.55-30.259,30.255v0.56
			c-0.388,13.044,15.381,39.675,24.309,53.673c0.095,0.135,5.925,8.795,11.903-0.005c8.925-13.998,24.662-40.624,24.274-53.668
			L80.243,33.971L80.243,33.971z M50,41.117c-4.012,0-7.263-3.252-7.263-7.261c0-4.008,3.251-7.259,7.263-7.259
			c4.012,0,7.264,3.251,7.264,7.259C57.264,37.865,54.012,41.117,50,41.117z"/>
	</g>
</g>
<g>
	<g>
		<path d="M49.984,97.282l0.036-0.056l0,0C50.01,97.242,49.984,97.282,49.984,97.282z"/>
	</g>
	<g>
		<circle fill="none" stroke="#FAFBFC" stroke-width="4" cx="50" cy="33.857" r="6.608"/>
		<path fill="none" stroke="#FAFBFC" stroke-width="4" d="M49.984,97.282l0.036-0.056l0,0C50.01,97.242,49.984,97.282,49.984,97.282
			z"/>
		<path fill="none" stroke="#FAFBFC" stroke-width="4" d="M80.243,33.971c0-16.706-13.525-30.255-30.228-30.255
			c-16.709,0-30.259,13.55-30.259,30.255v0.56c-0.388,13.044,15.381,39.675,24.309,53.673c0.095,0.135,5.925,8.795,11.903-0.005
			c8.925-13.998,24.662-40.624,24.274-53.668L80.243,33.971L80.243,33.971z M50,41.117c-4.012,0-7.263-3.252-7.263-7.261
			c0-4.008,3.251-7.259,7.263-7.259c4.012,0,7.264,3.251,7.264,7.259C57.264,37.865,54.012,41.117,50,41.117z"/>
	</g>
</g>
</svg>
