<?xml version="1.0" encoding="utf-8"?>
<!-- Generator: Adobe Illustrator 16.0.4, SVG Export Plug-In . SVG Version: 6.00 Build 0)  -->
<!DOCTYPE svg PUBLIC "-//W3C//DTD SVG 1.1//EN" "http://www.w3.org/Graphics/SVG/1.1/DTD/svg11.dtd">
<svg version="1.1" id="Layer_1" xmlns="http://www.w3.org/2000/svg" xmlns:xlink="http://www.w3.org/1999/xlink" x="0px" y="0px"
	 width="48px" height="37.875px" viewBox="0 0 48 37.875" enable-background="new 0 0 48 37.875" xml:space="preserve">
<path fill="#4B6A20" d="M38.663,3.993c-3.176,0-5.75,2.574-5.75,5.75s2.574,5.75,5.75,5.75s5.75-2.574,5.75-5.75
	S41.839,3.993,38.663,3.993z M42.343,8.327L38.61,12.06c0,0,0,0.001-0.001,0.002l-0.552,0.55l-0.001,0.001
	c-0.166,0.167-0.401,0.211-0.614,0.152c-0.102-0.028-0.201-0.072-0.281-0.153l-2.179-2.18c-0.247-0.248-0.247-0.648,0-0.896
	l0.55-0.551c0.248-0.247,0.648-0.247,0.896,0l1.182,1.182l3.285-3.287c0.248-0.248,0.649-0.248,0.897,0l0.551,0.551
	C42.591,7.678,42.591,8.079,42.343,8.327z"/>
</svg>
