<?xml version="1.0" encoding="utf-8"?>
<!-- Generator: Adobe Illustrator 16.0.4, SVG Export Plug-In . SVG Version: 6.00 Build 0)  -->
<!DOCTYPE svg PUBLIC "-//W3C//DTD SVG 1.1//EN" "http://www.w3.org/Graphics/SVG/1.1/DTD/svg11.dtd">
<svg version="1.1" id="Layer_1" xmlns="http://www.w3.org/2000/svg" xmlns:xlink="http://www.w3.org/1999/xlink" x="0px" y="0px"
	 width="48px" height="37.875px" viewBox="0 0 48 37.875" enable-background="new 0 0 48 37.875" xml:space="preserve">
<path fill="#DCFFB0" d="M62.866,3.542l-1.511-1.51c-0.06-0.059-0.153-0.06-0.213,0l-6.494,6.495l-2.705-2.704
	c-0.057-0.059-0.153-0.059-0.211,0l-1.512,1.51c-0.058,0.058-0.058,0.154,0,0.213l3.873,3.872c0.028,0.029,0.067,0.042,0.104,0.043
	l0.374,0.374c0.059,0.059,0.154,0.059,0.212,0l8.082-8.081C62.925,3.696,62.924,3.6,62.866,3.542z"/>
<path fill="#4B6A20" d="M39.232,4.247c-2.969,0-5.375,2.406-5.375,5.375s2.406,5.375,5.375,5.375s5.375-2.406,5.375-5.375
	S42.201,4.247,39.232,4.247z M39.177,12.244c0,0,0,0.001-0.001,0.001l-0.577,0.577l-0.001,0.001
	c-0.176,0.175-0.422,0.222-0.646,0.16c-0.106-0.029-0.21-0.076-0.294-0.16l-2.283-2.284c-0.26-0.26-0.26-0.68,0-0.94l0.576-0.577
	c0.26-0.259,0.68-0.259,0.939,0l1.237,1.238l3.445-3.446c0.259-0.259,0.679-0.259,0.938,0.001l0.578,0.578
	c0.259,0.258,0.259,0.678-0.001,0.938L39.177,12.244z"/>
</svg>
