<?xml version="1.0" encoding="utf-8"?>
<!-- Generator: Adobe Illustrator 16.0.4, SVG Export Plug-In . SVG Version: 6.00 Build 0)  -->
<!DOCTYPE svg PUBLIC "-//W3C//DTD SVG 1.1//EN" "http://www.w3.org/Graphics/SVG/1.1/DTD/svg11.dtd">
<svg version="1.1" id="Layer_1" xmlns="http://www.w3.org/2000/svg" xmlns:xlink="http://www.w3.org/1999/xlink" x="0px" y="0px"
	 width="48px" height="37.875px" viewBox="0 0 48 37.875" enable-background="new 0 0 48 37.875" xml:space="preserve">
<path fill="#4D6B31" d="M42.763,8.943H39.54V5.721c0-0.214-0.173-0.388-0.388-0.388h-2.444c-0.215,0-0.389,0.174-0.389,0.388v3.222
	H33.1c-0.215,0-0.389,0.174-0.389,0.388v2.444c0,0.214,0.174,0.388,0.389,0.388h3.22v3.222c0,0.214,0.174,0.388,0.389,0.388h2.444
	c0.215,0,0.388-0.174,0.388-0.388v-3.222h3.223c0.214,0,0.389-0.174,0.389-0.388V9.331C43.151,9.117,42.977,8.943,42.763,8.943z"/>
</svg>
