<?xml version="1.0" encoding="utf-8"?>
<!-- Generator: Adobe Illustrator 16.0.4, SVG Export Plug-In . SVG Version: 6.00 Build 0)  -->
<!DOCTYPE svg PUBLIC "-//W3C//DTD SVG 1.1//EN" "http://www.w3.org/Graphics/SVG/1.1/DTD/svg11.dtd">
<svg version="1.1" id="Layer_1" xmlns="http://www.w3.org/2000/svg" xmlns:xlink="http://www.w3.org/1999/xlink" x="0px" y="0px"
	 width="52px" height="28.666px" viewBox="0 0 52 28.666" enable-background="new 0 0 52 28.666" xml:space="preserve">
<path fill="#90C74F" d="M3.007,12.598c0,0,10.149,1.289,21.427-5.511c11.278-6.8,17.918-3.734,17.918-3.734l6.656,14.672
	c0,0-8.515-0.791-15.605,2.239c-7.092,3.029-14.537,7.835-24.188,5.989L3.007,12.598z"/>
<path fill-rule="evenodd" clip-rule="evenodd" fill="#C4DC71" d="M29.14,8.248c3.658,1.427,5.439,5.458,3.98,9.003
	c-1.458,3.544-5.605,5.261-9.262,3.833c-3.657-1.427-5.439-5.458-3.981-9.002S25.483,6.82,29.14,8.248z"/>
<path fill="none" stroke="#C4DC71" stroke-width="0.5" stroke-miterlimit="10" d="M4.445,13.303c0,0,9.515,1.064,20.088-5.31
	C35.106,1.618,41.62,4.06,41.62,4.06l5.952,13.036c0,0-7.982-0.453-14.631,2.387S19.025,27.26,9.977,25.529L4.445,13.303z"/>
<path fill="#6E993F" stroke="#6E993F" stroke-miterlimit="10" d="M12.953,19.215c-0.058-0.131-0.117-0.174-0.117-0.307
	c-0.635,0.043-1.328,0.043-1.961,0.043c0.057,0.264,0.172,0.531,0.345,0.797C11.854,19.57,12.374,19.439,12.953,19.215z"/>
<path fill="#6E993F" stroke="#6E993F" stroke-miterlimit="10" d="M13.125,18.021c-0.463-0.266-0.924-0.576-1.443-0.885
	c-0.29,0.223-0.404,0.398-0.52,0.707c0.575,0.178,1.212,0.355,1.733,0.533C13.009,18.289,13.067,18.154,13.125,18.021z"/>
<path fill="#6E993F" stroke="#6E993F" stroke-miterlimit="10" d="M13.816,19.881c-0.172-0.045-0.347-0.133-0.403-0.176
	c-0.403,0.354-0.807,0.664-1.213,1.018c0.289,0.178,0.635,0.355,0.983,0.398C13.412,20.68,13.587,20.281,13.816,19.881z"/>
<path fill="#6E993F" stroke="#6E993F" stroke-miterlimit="10" d="M13.933,16.16c-0.346,0.045-0.692,0.135-1.038,0.225
	c0.172,0.266,0.23,0.398,0.404,0.664c-0.174-0.266-0.232-0.398-0.404-0.664c0.289,0.441,0.517,0.885,0.809,1.328
	c0.172-0.09,0.289-0.09,0.462-0.133C14.106,17.094,13.991,16.65,13.933,16.16z"/>
<path fill="#6E993F" stroke="#6E993F" stroke-miterlimit="10" d="M14.974,19.836c-0.116,0.045-0.291,0.09-0.462,0.09
	c0.058,0.486,0.171,0.932,0.287,1.418c0.347-0.043,0.693-0.088,0.984-0.223C15.491,20.68,15.262,20.281,14.974,19.836z"/>
<path fill="#6E993F" stroke="#6E993F" stroke-miterlimit="10" d="M16.358,16.605c-0.288-0.178-0.576-0.311-0.867-0.355
	c-0.229,0.441-0.462,0.887-0.635,1.373c0.114,0.045,0.29,0.133,0.406,0.178C15.608,17.402,16.012,17.004,16.358,16.605z"/>
<path fill="#6E993F" stroke="#6E993F" stroke-miterlimit="10" d="M17.571,19.57c-0.635-0.131-1.213-0.264-1.789-0.443
	c-0.059,0.135-0.174,0.27-0.232,0.357c0.463,0.264,0.982,0.572,1.5,0.84C17.224,20.102,17.398,19.836,17.571,19.57z"/>
<path fill="#6E993F" stroke="#6E993F" stroke-miterlimit="10" d="M17.398,17.492c-0.057,0-0.057,0-0.057,0
	c-0.521,0.264-1.042,0.486-1.618,0.707c0,0.043,0,0.043,0,0.043c0.114,0.092,0.114,0.221,0.114,0.355
	c0.695-0.088,1.213-0.176,1.792-0.309C17.571,18.021,17.512,17.756,17.398,17.492z"/>
<path id="path3796" inkscape:export-xdpi="68" inkscape:export-ydpi="68" inkscape:connector-curvature="0" inkscape:export-filename="C:\Users\Toshiba\SkyDrive\GlobeIn website PSD templates\icons\status icons\refund.png" fill="#6E993F" d="
	M27.83,11.879l-2.075,0.875l-0.146-0.344c-0.154-0.366-0.279-0.596-0.375-0.688s-0.222-0.106-0.379-0.04
	c-0.127,0.054-0.201,0.143-0.223,0.267c-0.022,0.125,0.008,0.284,0.09,0.479c0.137,0.325,0.298,0.525,0.483,0.601
	c0.182,0.077,0.662,0.172,1.441,0.288c0.66,0.096,1.123,0.188,1.387,0.277c0.263,0.088,0.525,0.26,0.788,0.514
	c0.263,0.254,0.491,0.613,0.687,1.075c0.312,0.739,0.379,1.395,0.2,1.965c-0.179,0.572-0.603,1.057-1.272,1.457l0.33,0.78
	l-0.955,0.403l-0.341-0.807c-0.577,0.18-1.151,0.172-1.723-0.025c-0.571-0.197-1.052-0.758-1.441-1.682l-0.171-0.405l2.075-0.876
	l0.215,0.509c0.234,0.558,0.402,0.896,0.502,1.013s0.232,0.141,0.396,0.072c0.141-0.061,0.225-0.15,0.254-0.273
	s0.004-0.277-0.074-0.463c-0.196-0.465-0.369-0.784-0.52-0.957c-0.148-0.173-0.463-0.297-0.943-0.373
	c-0.8-0.13-1.354-0.24-1.661-0.331c-0.306-0.09-0.614-0.27-0.923-0.539c-0.309-0.269-0.554-0.617-0.734-1.045
	c-0.262-0.619-0.292-1.179-0.089-1.68c0.202-0.5,0.637-0.94,1.304-1.318l-0.279-0.662l0.955-0.403l0.279,0.663
	c0.675-0.188,1.244-0.176,1.709,0.038c0.466,0.213,0.827,0.626,1.086,1.239C27.721,11.565,27.769,11.698,27.83,11.879L27.83,11.879z
	"/>
<path fill="#6E993F" stroke="#6E993F" stroke-miterlimit="10" d="M35.898,9.34c-0.363,0.07-0.606,0.116-0.922,0.239
	c0.484,1.214,0.857,2.404,1.342,3.617c0.375-0.112,0.561-0.17,0.982-0.229C36.88,11.721,36.385,10.552,35.898,9.34z"/>
<path fill="#6E993F" stroke="#6E993F" stroke-miterlimit="10" d="M37.972,8.902c-0.363,0.07-0.551,0.127-0.916,0.196
	c0.496,1.169,0.982,2.38,1.408,3.583c0.357-0.025,0.545-0.083,0.965-0.142C38.955,11.285,38.46,10.116,37.972,8.902z"/>
<path fill="#6E993F" stroke="#6E993F" stroke-miterlimit="10" d="M40.136,8.618c-0.356,0.026-0.544,0.082-0.965,0.142
	c0.495,1.169,0.979,2.382,1.416,3.539c0.414-0.016,0.592-0.027,0.959-0.097C41.109,11.043,40.566,9.821,40.136,8.618z"/>
</svg>
