<?xml version="1.0" encoding="utf-8"?>
<!-- Generator: Adobe Illustrator 16.0.4, SVG Export Plug-In . SVG Version: 6.00 Build 0)  -->
<!DOCTYPE svg PUBLIC "-//W3C//DTD SVG 1.1//EN" "http://www.w3.org/Graphics/SVG/1.1/DTD/svg11.dtd">
<svg version="1.1" id="Layer_1" xmlns="http://www.w3.org/2000/svg" xmlns:xlink="http://www.w3.org/1999/xlink" x="0px" y="0px"
	 width="328px" height="93.5px" viewBox="0 0 328 93.5" enable-background="new 0 0 328 93.5" xml:space="preserve">
<g>
	<circle fill="#BCF96E" cx="236.395" cy="13.083" r="6.611"/>
	<path fill="#BCF96E" d="M236.395,21.62c-4.707,0-8.536-3.829-8.536-8.536s3.829-8.536,8.536-8.536s8.536,3.829,8.536,8.536
		S241.102,21.62,236.395,21.62z M236.395,8.398c-2.583,0-4.686,2.102-4.686,4.686s2.102,4.686,4.686,4.686s4.686-2.102,4.686-4.686
		S238.978,8.398,236.395,8.398z"/>
</g>
<g>
	<g>
		<path fill="#0CE8F2" d="M100.641,27.146c-11.314,0-20.52,9.205-20.52,20.52s9.205,20.52,20.52,20.52s20.52-9.205,20.52-20.52
			S111.955,27.146,100.641,27.146z M100.641,62.523c-8.193,0-14.858-6.665-14.858-14.858s6.665-14.858,14.858-14.858
			s14.858,6.665,14.858,14.858S108.833,62.523,100.641,62.523z"/>
		<path fill="#0CE8F2" d="M100.641,23.525c-13.333,0-24.141,10.808-24.141,24.141s10.808,24.141,24.141,24.141
			s24.141-10.808,24.141-24.141S113.973,23.525,100.641,23.525z M100.641,68.185c-11.314,0-20.52-9.205-20.52-20.52
			s9.205-20.52,20.52-20.52s20.52,9.205,20.52,20.52S111.955,68.185,100.641,68.185z"/>
		<path fill="#FFFFFF" d="M100.641,32.808c-8.193,0-14.858,6.665-14.858,14.858s6.665,14.858,14.858,14.858
			s14.858-6.665,14.858-14.858S108.833,32.808,100.641,32.808z M100.641,58.902c-6.206,0-11.237-5.031-11.237-11.237
			s5.031-11.237,11.237-11.237s11.237,5.031,11.237,11.237S106.846,58.902,100.641,58.902z"/>
		<path fill="#FFFFFF" d="M100.641,36.429c-6.206,0-11.237,5.031-11.237,11.237s5.031,11.237,11.237,11.237
			s11.237-5.031,11.237-11.237S106.846,36.429,100.641,36.429z M100.641,55.281c-4.2,0-7.616-3.416-7.616-7.616
			s3.416-7.616,7.616-7.616s7.616,3.416,7.616,7.616S104.84,55.281,100.641,55.281z"/>
	</g>
	<g>
		<circle fill="#BCF96E" cx="100.395" cy="47.441" r="6.611"/>
		<path fill="#BCF96E" d="M100.395,55.978c-4.707,0-8.536-3.829-8.536-8.536s3.829-8.536,8.536-8.536s8.536,3.829,8.536,8.536
			S105.102,55.978,100.395,55.978z M100.395,42.756c-2.583,0-4.686,2.102-4.686,4.686s2.102,4.686,4.686,4.686
			s4.686-2.102,4.686-4.686S102.978,42.756,100.395,42.756z"/>
	</g>
</g>
<path d="M63.277,27.024c1.814,0.725,3.46,1.996,4.938,3.81c1.192,1.478,1.996,3.292,2.411,5.443
	c0.259,1.425,0.389,3.512,0.389,6.259l-0.078,26.709H59.584V42.264c0-1.607-0.259-2.929-0.777-3.966
	c-0.985-1.97-2.799-2.955-5.443-2.955c-3.059,0-5.17,1.27-6.337,3.81c-0.596,1.348-0.895,2.968-0.895,4.86v25.231H34.975V44.013
	c0-2.515-0.259-4.342-0.777-5.482c-0.933-2.047-2.76-3.071-5.481-3.071c-3.163,0-5.288,1.024-6.376,3.071
	c-0.596,1.166-0.894,2.903-0.894,5.209v25.504H10.21V26.946h10.769v6.181c1.374-2.203,2.669-3.771,3.888-4.704
	c2.151-1.659,4.938-2.489,8.358-2.489c3.24,0,5.858,0.713,7.854,2.139c1.606,1.322,2.825,3.02,3.654,5.093
	c1.451-2.488,3.253-4.315,5.404-5.482c2.28-1.166,4.82-1.75,7.62-1.75C59.623,25.935,61.463,26.298,63.277,27.024z"/>
<path d="M156.288,27.548c1.996,1.127,3.616,2.689,4.86,4.685V12.017h11.235v57.228h-10.769v-5.871
	c-1.581,2.514-3.382,4.341-5.404,5.482c-2.022,1.14-4.536,1.71-7.542,1.71c-4.95,0-9.117-2.002-12.5-6.006
	c-3.382-4.004-5.073-9.143-5.073-15.415c0-7.231,1.666-12.92,4.996-17.067c3.331-4.147,7.782-6.22,13.355-6.22
	C152.012,25.857,154.292,26.421,156.288,27.548z M159.01,57.736c1.633-2.333,2.449-5.352,2.449-9.058
	c0-5.184-1.309-8.89-3.927-11.119c-1.606-1.348-3.473-2.021-5.598-2.021c-3.24,0-5.618,1.225-7.134,3.674
	c-1.516,2.449-2.274,5.488-2.274,9.116c0,3.914,0.771,7.043,2.314,9.389c1.542,2.345,3.881,3.518,7.017,3.518
	C154.992,61.235,157.376,60.069,159.01,57.736z"/>
<path d="M212.055,27.727c2.958,1.325,5.397,3.415,7.325,6.269c1.733,2.518,2.86,5.436,3.376,8.76c0.298,1.947,0.418,4.75,0.362,8.41
	h-30.862c0.172,4.251,1.649,7.231,4.432,8.942c1.691,1.062,3.729,1.594,6.11,1.594c2.524,0,4.575-0.648,6.149-1.944
	c0.862-0.7,1.624-1.672,2.281-2.916h11.313c-0.298,2.514-1.668,5.067-4.108,7.659c-3.797,4.121-9.11,6.181-15.943,6.181
	c-5.641,0-10.614-1.737-14.926-5.213s-6.466-9.132-6.466-16.967c0-7.341,1.947-12.968,5.838-16.885s8.942-5.877,15.153-5.877
	C205.779,25.74,209.1,26.401,212.055,27.727z M195.479,37.297c-1.564,1.617-2.549,3.8-2.951,6.561h19.089
	c-0.201-2.942-1.186-5.174-2.952-6.697c-1.766-1.522-3.956-2.284-6.57-2.284C199.251,34.876,197.045,35.683,195.479,37.297z"/>
<path d="M230.871,26.868h11.236v42.376h-11.236V26.868z"/>
<path d="M272.36,11.414c0.57,0.039,1.348,0.097,2.333,0.175v9.02c-0.622-0.077-1.666-0.135-3.129-0.175
	c-1.465-0.039-2.476,0.286-3.032,0.972c-0.558,0.687-0.836,1.445-0.836,2.274c0,0.829,0,2.021,0,3.577h7.27v7.814h-7.27v34.173
	h-11.002V35.071h-6.22v-7.814h6.065v-2.721c0-4.536,0.765-7.659,2.294-9.37c1.606-2.54,5.482-3.81,11.624-3.81
	C271.154,11.356,271.79,11.375,272.36,11.414z"/>
<path d="M285.001,77.37l1.399,0.078c1.088,0.052,2.125,0.013,3.11-0.117c0.985-0.129,1.814-0.427,2.488-0.894
	c0.648-0.44,1.25-1.361,1.808-2.76s0.797-2.255,0.719-2.566l-15.57-44.242h12.324l9.253,31.257l8.748-31.257h11.78l-14.527,41.677
	c-2.809,8.034-5.028,13.017-6.664,14.948s-4.905,2.896-9.807,2.896c-0.988,0-1.779-0.006-2.375-0.02
	c-0.596-0.013-1.494-0.058-2.686-0.136V77.37z"/>
</svg>
