<?xml version="1.0" encoding="utf-8"?>
<!-- Generator: Adobe Illustrator 16.0.4, SVG Export Plug-In . SVG Version: 6.00 Build 0)  -->
<!DOCTYPE svg PUBLIC "-//W3C//DTD SVG 1.1//EN" "http://www.w3.org/Graphics/SVG/1.1/DTD/svg11.dtd">
<svg version="1.1" id="Layer_1" xmlns="http://www.w3.org/2000/svg" xmlns:xlink="http://www.w3.org/1999/xlink" x="0px" y="0px"
	 width="175.66px" height="18.391px" viewBox="0 0 175.66 18.391" enable-background="new 0 0 175.66 18.391" xml:space="preserve">
<g>
	<path fill="#FFFFFF" d="M44.884,7.063c-0.12-0.193-0.27-0.361-0.45-0.507c-0.179-0.146-0.383-0.259-0.609-0.341
		c-0.228-0.081-0.465-0.122-0.715-0.122c-0.453,0-0.838,0.088-1.156,0.263c-0.316,0.176-0.573,0.411-0.771,0.707
		c-0.197,0.295-0.341,0.632-0.43,1.009c-0.09,0.377-0.134,0.766-0.134,1.169c0,0.386,0.044,0.76,0.134,1.124
		c0.089,0.363,0.233,0.691,0.43,0.982c0.198,0.291,0.455,0.525,0.771,0.7c0.317,0.176,0.703,0.263,1.156,0.263
		c0.618,0,1.099-0.188,1.446-0.564c0.347-0.377,0.56-0.873,0.636-1.49h1.952c-0.052,0.574-0.184,1.091-0.398,1.553
		c-0.213,0.464-0.496,0.857-0.847,1.183c-0.352,0.325-0.762,0.574-1.234,0.745c-0.471,0.171-0.988,0.257-1.555,0.257
		c-0.701,0-1.333-0.123-1.894-0.366c-0.561-0.244-1.035-0.58-1.42-1.009c-0.385-0.428-0.68-0.93-0.886-1.51
		c-0.206-0.578-0.308-1.2-0.308-1.868c0-0.685,0.102-1.321,0.308-1.908s0.501-1.098,0.886-1.536c0.385-0.436,0.859-0.779,1.42-1.027
		c0.56-0.248,1.192-0.372,1.894-0.372c0.506,0,0.983,0.072,1.434,0.218c0.449,0.146,0.852,0.358,1.208,0.636
		c0.354,0.278,0.647,0.624,0.879,1.034c0.231,0.412,0.376,0.882,0.437,1.414h-1.951C45.081,7.468,45.004,7.256,44.884,7.063z"/>
	<path fill="#FFFFFF" d="M49.252,7.333c0.205-0.586,0.501-1.098,0.886-1.536c0.386-0.436,0.859-0.779,1.42-1.027
		c0.56-0.248,1.191-0.372,1.894-0.372c0.711,0,1.344,0.124,1.901,0.372c0.558,0.249,1.028,0.591,1.414,1.027
		c0.386,0.438,0.681,0.949,0.886,1.536c0.206,0.586,0.309,1.223,0.309,1.908c0,0.668-0.104,1.29-0.309,1.868
		c-0.205,0.58-0.5,1.082-0.886,1.51c-0.386,0.429-0.856,0.765-1.414,1.009c-0.557,0.243-1.189,0.366-1.901,0.366
		c-0.702,0-1.334-0.123-1.894-0.366c-0.562-0.244-1.035-0.58-1.42-1.009c-0.385-0.428-0.681-0.93-0.886-1.51
		c-0.207-0.578-0.308-1.2-0.308-1.868C48.944,8.556,49.045,7.919,49.252,7.333z M51.095,10.365c0.089,0.363,0.233,0.691,0.43,0.982
		s0.454,0.525,0.771,0.7c0.318,0.176,0.702,0.263,1.156,0.263c0.454,0,0.839-0.087,1.156-0.263c0.317-0.175,0.575-0.409,0.771-0.7
		c0.197-0.291,0.34-0.619,0.431-0.982c0.09-0.364,0.135-0.738,0.135-1.124c0-0.403-0.045-0.792-0.135-1.169
		c-0.09-0.377-0.233-0.713-0.431-1.009c-0.196-0.295-0.454-0.531-0.771-0.707c-0.316-0.175-0.702-0.263-1.156-0.263
		c-0.454,0-0.838,0.088-1.156,0.263c-0.316,0.176-0.574,0.411-0.771,0.707s-0.34,0.632-0.43,1.009
		c-0.09,0.377-0.135,0.766-0.135,1.169C50.96,9.626,51.005,10,51.095,10.365z"/>
	<path fill="#FFFFFF" d="M62.997,4.616l2.145,6.307h0.026l2.029-6.307h2.84v9.172h-1.889V7.288h-0.026l-2.248,6.501h-1.555
		l-2.248-6.437h-0.026v6.437h-1.888V4.616H62.997z"/>
	<path fill="#FFFFFF" d="M75.47,4.616l2.145,6.307h0.026l2.03-6.307h2.838v9.172H80.62V7.288h-0.025l-2.248,6.501h-1.554
		l-2.249-6.437h-0.025v6.437h-1.888V4.616H75.47z"/>
	<path fill="#FFFFFF" d="M91.848,13.087c-0.694,0.604-1.652,0.906-2.878,0.906c-1.242,0-2.203-0.3-2.884-0.899
		s-1.021-1.524-1.021-2.774V4.616h2.016v5.704c0,0.248,0.021,0.492,0.064,0.732c0.043,0.239,0.132,0.451,0.27,0.637
		c0.137,0.184,0.328,0.332,0.571,0.447c0.245,0.115,0.572,0.174,0.983,0.174c0.72,0,1.216-0.16,1.489-0.48
		c0.275-0.322,0.412-0.824,0.412-1.51V4.616h2.016v5.704C92.887,11.562,92.542,12.484,91.848,13.087z"/>
	<path fill="#FFFFFF" d="M94.725,6.312V4.616h7.515v1.695h-2.75v7.477h-2.017V6.312H94.725z"/>
	<path fill="#FFFFFF" d="M110.975,4.616v1.695h-4.843v1.966h4.444v1.566h-4.444v2.249h4.944v1.696h-6.961V4.616H110.975z"/>
	<path fill="#FFFFFF" d="M117.372,4.616c0.412,0,0.783,0.058,1.118,0.173c0.333,0.115,0.621,0.287,0.86,0.514
		c0.24,0.227,0.424,0.503,0.552,0.829c0.13,0.325,0.193,0.693,0.193,1.104c0,0.411-0.063,0.779-0.193,1.104
		c-0.128,0.326-0.312,0.602-0.552,0.83c-0.239,0.226-0.527,0.397-0.86,0.513c-0.335,0.116-0.706,0.173-1.118,0.173h-3.199v3.932
		H113.3V4.616H117.372z M117.179,9.112c0.608,0,1.101-0.155,1.478-0.462c0.377-0.309,0.564-0.779,0.564-1.413
		c0-0.634-0.188-1.104-0.564-1.414c-0.377-0.308-0.869-0.462-1.478-0.462h-3.007v3.751H117.179z"/>
	<path fill="#FFFFFF" d="M123.088,4.616v8.426h5.138v0.746h-6.011V4.616H123.088z"/>
	<path fill="#FFFFFF" d="M133.595,4.616l3.597,9.172h-0.938l-1.117-2.852h-4.176l-1.104,2.852h-0.925l3.687-9.172H133.595z
		 M134.841,10.191l-1.772-4.702l-1.837,4.702H134.841z"/>
	<path fill="#FFFFFF" d="M139.813,4.616l5.344,7.758h0.025V4.616h0.873v9.172h-0.975l-5.344-7.759h-0.027v7.759h-0.873V4.616
		H139.813z"/>
	<path fill="#FFFFFF" d="M149.679,4.616l5.343,7.758h0.025V4.616h0.875v9.172h-0.977l-5.344-7.759h-0.027v7.759h-0.872V4.616
		H149.679z"/>
	<path fill="#FFFFFF" d="M164.913,4.616v0.745h-5.459v3.313h5.113V9.42h-5.113v3.622h5.523v0.746h-6.397V4.616H164.913z"/>
	<path fill="#FFFFFF" d="M171.22,4.616c0.377,0,0.734,0.047,1.073,0.141c0.338,0.094,0.633,0.237,0.885,0.43
		c0.254,0.193,0.455,0.441,0.604,0.745s0.226,0.662,0.226,1.073c0,0.583-0.151,1.088-0.451,1.516
		c-0.299,0.429-0.744,0.703-1.335,0.822v0.026c0.3,0.043,0.547,0.122,0.745,0.237c0.195,0.116,0.357,0.264,0.481,0.444
		c0.124,0.18,0.214,0.387,0.27,0.623c0.056,0.234,0.092,0.489,0.109,0.764c0.009,0.154,0.017,0.343,0.026,0.565
		c0.008,0.224,0.025,0.447,0.051,0.674c0.025,0.228,0.066,0.441,0.121,0.643c0.057,0.202,0.131,0.358,0.225,0.47h-0.963
		c-0.051-0.086-0.092-0.191-0.121-0.314c-0.031-0.125-0.053-0.254-0.064-0.387c-0.013-0.133-0.024-0.263-0.032-0.392
		c-0.009-0.128-0.019-0.239-0.026-0.334c-0.017-0.325-0.045-0.649-0.083-0.97c-0.038-0.321-0.12-0.607-0.244-0.861
		c-0.124-0.252-0.305-0.455-0.54-0.61c-0.234-0.153-0.559-0.222-0.969-0.205h-3.314v4.072h-0.874V4.616H171.22z M171.156,8.971
		c0.265,0,0.519-0.041,0.759-0.122c0.238-0.082,0.449-0.199,0.629-0.354c0.18-0.154,0.322-0.34,0.43-0.559s0.16-0.468,0.16-0.751
		c0-0.565-0.162-1.011-0.487-1.336s-0.822-0.488-1.49-0.488h-3.263v3.609H171.156z"/>
</g>
<g>
	<path fill="#FFFFFF" d="M11.43,0C9.318-0.001,7.375,0.716,5.82,1.915l17.036,0.006V0H11.43z"/>
	<path fill="#FFFFFF" d="M18.522,15.905h4.333v-1.921h-2.917C19.546,14.683,19.069,15.328,18.522,15.905z"/>
	<path fill="#FFFFFF" d="M17.718,2.488h-3.445c2.607,1.108,4.435,3.694,4.435,6.704c0,4.019-3.276,7.278-7.297,7.278
		c-0.007,0-0.002,0,0,0c-0.002,0-0.007,0,0,0H0v1.921l11.43-0.003c5.077,0,9.191-4.117,9.191-9.196
		C20.621,6.551,19.505,4.167,17.718,2.488z"/>
	<path fill="#FFFFFF" d="M4.15,9.192c0-1.569,0.496-3.02,1.34-4.209H3.253c-0.649,1.26-1.017,2.691-1.017,4.209
		c0,2.639,1.111,5.02,2.895,6.698h3.441C5.971,14.779,4.15,12.2,4.15,9.192z"/>
	<path fill="#FFFFFF" d="M16.22,9.192c0,1.828-1.021,3.415-2.522,4.221h2.936c0.937-1.151,1.496-2.621,1.496-4.221
		c0-3.702-3-6.708-6.7-6.708L0,2.48V4.4h11.43C14.073,4.4,16.22,6.546,16.22,9.192z"/>
	<path fill="#FFFFFF" d="M16.113,13.984H11.43c-2.647,0-4.794-2.145-4.794-4.792c0-1.815,1.012-3.399,2.5-4.209H6.213
		C5.282,6.134,4.725,7.598,4.725,9.192c0,3.702,3,6.702,6.705,6.702C13.251,15.894,14.906,15.166,16.113,13.984z"/>
</g>
</svg>
