<?xml version="1.0" standalone="no"?>
<!DOCTYPE svg PUBLIC "-//W3C//DTD SVG 20010904//EN"
 "http://www.w3.org/TR/2001/REC-SVG-20010904/DTD/svg10.dtd">
<svg version="1.0" xmlns="http://www.w3.org/2000/svg"
 width="46.000000pt" height="40.000000pt" viewBox="0 0 46.000000 40.000000"
 preserveAspectRatio="xMidYMid meet">
<metadata>
Created by potrace 1.13, written by Peter Selinger 2001-2015
</metadata>
<g transform="translate(0.000000,40.000000) scale(0.100000,-0.100000)"
fill="#000000" stroke="none">
<path d="M1 240 c-2 -166 6 -209 44 -224 9 -3 106 -7 215 -8 l199 -3 -1 195
-1 195 -201 -3 c-154 -3 -206 -7 -224 -18 -12 -8 -22 -10 -22 -5 0 6 8 15 18
20 15 9 15 10 -4 11 -20 0 -20 -6 -23 -160z m444 139 c11 -17 -1 -21 -15 -4
-8 9 -8 15 -2 15 6 0 14 -5 17 -11z m-150 -59 c16 -18 16 -20 2 -20 -14 0 -17
-12 -17 -76 0 -86 11 -114 43 -114 41 0 61 43 37 80 -8 12 -12 12 -18 2 -6 -9
-14 -6 -30 11 l-22 23 25 24 c18 17 25 19 25 9 0 -9 14 -25 30 -37 25 -19 30
-30 30 -62 0 -51 -27 -80 -74 -80 -57 0 -76 35 -76 136 0 72 -2 84 -17 84 -14
0 -14 2 2 20 10 11 23 20 30 20 7 0 20 -9 30 -20z m-97 -94 c17 -1 22 -7 22
-28 0 -24 -4 -28 -30 -28 -22 0 -28 4 -24 15 5 11 -1 15 -24 15 -17 0 -32 -6
-36 -15 -7 -19 -36 -20 -36 -2 0 29 52 59 85 50 11 -3 30 -6 43 -7z m-86 -78
c-8 -8 -9 -15 -1 -25 15 -18 54 -17 69 2 13 15 40 21 40 8 0 -4 -10 -17 -22
-30 -25 -26 -74 -31 -103 -9 -11 8 -25 12 -32 9 -9 -4 -13 5 -13 26 0 29 2 31
37 31 28 0 34 -3 25 -12z m333 -127 c-3 -6 -11 -11 -17 -11 -6 0 -6 6 2 15 14
17 26 13 15 -4z"/>
<path d="M0 28 c0 -22 5 -28 23 -28 12 0 17 3 11 8 -6 4 -16 16 -22 27 -11 19
-11 18 -12 -7z"/>
</g>
</svg>
