<?xml version="1.0" encoding="utf-8"?>
<!-- Generator: Adobe Illustrator 16.0.4, SVG Export Plug-In . SVG Version: 6.00 Build 0)  -->
<!DOCTYPE svg PUBLIC "-//W3C//DTD SVG 1.1//EN" "http://www.w3.org/Graphics/SVG/1.1/DTD/svg11.dtd">
<svg version="1.1" id="Layer_1" xmlns="http://www.w3.org/2000/svg" xmlns:xlink="http://www.w3.org/1999/xlink" x="0px" y="0px"
	 width="50px" height="50px" viewBox="0 0 50 50" enable-background="new 0 0 50 50" xml:space="preserve">
<g>
	<g>
		<path fill="#FFCB00" d="M22.062,23.945L22.062,23.945L22.062,23.945z"/>
		<g>
			<path fill="#FFCB00" d="M38.672,39.902c-1.816,0-3.556-0.444-5.088-1.334c-1.548-0.873-2.82-2.139-3.82-3.752
				c-0.496-0.854-0.851-1.805-1.086-2.873c-0.226-1.063-0.326-2.284-0.32-3.672l0.027-17.831l-4.188,0.005l6.134-6.172l6.218,6.167
				h-4.101l-0.03,17.966c0,2.479,0.613,4.282,1.73,5.612c1.141,1.301,2.5,1.924,4.457,1.951c1.813-0.022,3.19-0.589,4.414-1.854
				c1.205-1.263,1.797-2.757,1.811-4.746c-0.01-2.017-0.583-3.521-1.764-4.778c-0.896-0.932-2.027-1.498-3.26-1.725l-0.009,3.855
				l-6.17-6.157l6.199-6.189l-0.015,4.413c1.045,0.107,1.988,0.351,2.935,0.747c1.29,0.526,2.416,1.312,3.36,2.335
				c0.928,1.002,1.642,2.141,2.138,3.417c0.481,1.273,0.729,2.634,0.729,4.052c0,2.943-0.99,5.562-2.929,7.543
				c-1.918,1.979-4.461,3.021-7.31,3.021C38.709,39.902,38.698,39.902,38.672,39.902"/>
			<g>
				<path fill="#FFCB00" d="M13.147,36.062c-2.648,0.052-4.96-1.494-6.002-3.77H7.128l2.958-3.025l-8.752,0.135l0.136,8.695
					l2.874-2.947c1.875,2.908,5.158,4.804,8.868,4.752c4.794-0.086,8.773-3.416,9.872-7.855l-4.057,0.062
					C18.055,34.398,15.803,36.021,13.147,36.062"/>
				<path fill="#FFCB00" d="M20.162,22.11c-1.889-1.799-4.475-2.879-7.283-2.84c-5.141,0.091-9.343,3.897-10.053,8.815l3.917-0.062
					c0.69-2.779,3.182-4.877,6.198-4.923c1.752-0.021,3.358,0.647,4.535,1.76l-2.98,3.068l8.769-0.138l-0.141-8.711L20.162,22.11"/>
			</g>
		</g>
	</g>
	<g>
		<path fill="#FFCB00" d="M22.062,23.945L22.062,23.945L22.062,23.945z"/>
		<g>
			<path fill="#FFCB00" d="M38.672,39.902c-1.816,0-3.556-0.444-5.088-1.334c-1.548-0.873-2.82-2.139-3.82-3.752
				c-0.496-0.854-0.851-1.805-1.086-2.873c-0.226-1.063-0.326-2.284-0.32-3.672l0.027-17.831l-4.188,0.005l6.134-6.172l6.218,6.167
				h-4.101l-0.03,17.966c0,2.479,0.613,4.282,1.73,5.612c1.141,1.301,2.5,1.924,4.457,1.951c1.813-0.022,3.19-0.589,4.414-1.854
				c1.205-1.263,1.797-2.757,1.811-4.746c-0.01-2.017-0.583-3.521-1.764-4.778c-0.896-0.932-2.027-1.498-3.26-1.725l-0.009,3.855
				l-6.17-6.157l6.199-6.189l-0.015,4.413c1.045,0.107,1.988,0.351,2.935,0.747c1.29,0.526,2.416,1.312,3.36,2.335
				c0.928,1.002,1.642,2.141,2.138,3.417c0.481,1.273,0.729,2.634,0.729,4.052c0,2.943-0.99,5.562-2.929,7.543
				c-1.918,1.979-4.461,3.021-7.31,3.021C38.709,39.902,38.698,39.902,38.672,39.902"/>
			<g>
				<path fill="#FFCB00" d="M13.147,36.062c-2.648,0.052-4.96-1.494-6.002-3.77H7.128l2.958-3.025l-8.752,0.135l0.136,8.695
					l2.874-2.947c1.875,2.908,5.158,4.804,8.868,4.752c4.794-0.086,8.773-3.416,9.872-7.855l-4.057,0.062
					C18.055,34.398,15.803,36.021,13.147,36.062"/>
				<path fill="#FFCB00" d="M20.162,22.11c-1.889-1.799-4.475-2.879-7.283-2.84c-5.141,0.091-9.343,3.897-10.053,8.815l3.917-0.062
					c0.69-2.779,3.182-4.877,6.198-4.923c1.752-0.021,3.358,0.647,4.535,1.76l-2.98,3.068l8.769-0.138l-0.141-8.711L20.162,22.11"/>
			</g>
		</g>
	</g>
</g>
</svg>
