<?xml version="1.0" encoding="utf-8"?>
<!-- Generator: Adobe Illustrator 16.0.4, SVG Export Plug-In . SVG Version: 6.00 Build 0)  -->
<!DOCTYPE svg PUBLIC "-//W3C//DTD SVG 1.1//EN" "http://www.w3.org/Graphics/SVG/1.1/DTD/svg11.dtd">
<svg version="1.1" id="Layer_1" xmlns="http://www.w3.org/2000/svg" xmlns:xlink="http://www.w3.org/1999/xlink" x="0px" y="0px"
	 width="100px" height="100px" viewBox="0 0 100 100" enable-background="new 0 0 100 100" xml:space="preserve">
<g>
	<circle fill="none" cx="50" cy="35.857" r="6.608"/>
	<path d="M49.984,99.282l0.036-0.056l0,0C50.01,99.242,49.984,99.282,49.984,99.282z"/>
	<path fill="#485971" d="M80.243,35.971c0-16.706-13.525-30.255-30.228-30.255c-16.709,0-30.259,13.55-30.259,30.255v0.56
		c-0.388,13.044,15.381,39.675,24.309,53.673c0.095,0.135,5.925,8.795,11.903-0.005c8.925-13.998,24.662-40.624,24.274-53.668
		L80.243,35.971L80.243,35.971z M50,43.117c-4.012,0-7.263-3.252-7.263-7.261c0-4.008,3.251-7.259,7.263-7.259
		c4.012,0,7.264,3.251,7.264,7.259C57.264,39.865,54.012,43.117,50,43.117z"/>
</g>
</svg>
