<?xml version="1.0" encoding="utf-8"?>
<!-- Generator: Adobe Illustrator 16.0.4, SVG Export Plug-In . SVG Version: 6.00 Build 0)  -->
<!DOCTYPE svg PUBLIC "-//W3C//DTD SVG 1.1//EN" "http://www.w3.org/Graphics/SVG/1.1/DTD/svg11.dtd">
<svg version="1.1" id="Layer_1" xmlns="http://www.w3.org/2000/svg" xmlns:xlink="http://www.w3.org/1999/xlink" x="0px" y="0px"
	 width="100px" height="100px" viewBox="0 0 100 100" enable-background="new 0 0 100 100" xml:space="preserve">
<g>
	<path fill="#485971" d="M49.664,12.595c0.185-0.35,0.487-0.35,0.672,0l12.176,23.099c0.184,0.35,0.654,0.692,1.045,0.759
		l25.734,4.444c0.391,0.067,0.482,0.355,0.207,0.639L71.29,60.257c-0.276,0.284-0.456,0.837-0.399,1.229l3.729,25.843
		c0.057,0.394-0.188,0.569-0.543,0.396L50.646,76.193c-0.354-0.176-0.938-0.176-1.292,0l-23.43,11.531
		c-0.354,0.174-0.6-0.002-0.543-0.396l3.729-25.843c0.057-0.394-0.123-0.945-0.399-1.229L10.502,41.536
		c-0.276-0.284-0.183-0.571,0.207-0.639l25.734-4.444c0.391-0.067,0.861-0.409,1.046-0.759L49.664,12.595z"/>
</g>
</svg>
